<?xml version="1.0" encoding="UTF-8"?>
<!DOCTYPE svg PUBLIC "-//W3C//DTD SVG 1.1//EN" "http://www.w3.org/Graphics/SVG/1.1/DTD/svg11.dtd">
<svg xmlns="http://www.w3.org/2000/svg" version="1.1" width="275px" height="183px" style="shape-rendering:geometricPrecision; text-rendering:geometricPrecision; image-rendering:optimizeQuality; fill-rule:evenodd; clip-rule:evenodd" xmlns:xlink="http://www.w3.org/1999/xlink">
<g><path style="opacity:1" fill="#fdfefe" d="M -0.5,-0.5 C 52.8333,-0.5 106.167,-0.5 159.5,-0.5C 157.552,0.131244 155.719,1.13124 154,2.5C 149.67,3.43304 145.17,3.43304 140.5,2.5C 138.956,2.78961 137.623,3.45627 136.5,4.5C 133.627,3.22512 130.627,2.39179 127.5,2C 119.833,1.33333 112.167,1.33333 104.5,2C 99.3321,3.98273 99.8321,4.81606 106,4.5C 113.147,3.73036 120.314,3.39702 127.5,3.5C 127.5,4.5 127.5,5.5 127.5,6.5C 123.629,6.18503 119.962,6.51836 116.5,7.5C 109.361,8.99491 102.361,10.9949 95.5,13.5C 93.4471,13.4021 91.7804,14.0687 90.5,15.5C 90.1667,15.5 89.8333,15.5 89.5,15.5C 85.827,17.0002 82.4937,19.0002 79.5,21.5C 75.78,23.0499 72.4466,25.2166 69.5,28C 67.2101,29.7772 65.5434,31.9438 64.5,34.5C 63.8333,34.5 63.5,34.8333 63.5,35.5C 56.5654,42.7761 51.2321,51.1094 47.5,60.5C 42.6835,74.4286 41.3502,88.762 43.5,103.5C 48.7344,130.342 63.4011,150.009 87.5,162.5C 94.8985,166.69 102.899,169.357 111.5,170.5C 111.5,170.833 111.5,171.167 111.5,171.5C 127.505,173.2 142.838,170.867 157.5,164.5C 161.201,162.988 164.534,160.988 167.5,158.5C 180.249,151.083 189.915,140.75 196.5,127.5C 199.023,123.938 200.69,119.938 201.5,115.5C 202.234,114.292 202.567,112.959 202.5,111.5C 205.006,104.344 206.339,96.8437 206.5,89C 206.672,85.5226 206.006,82.356 204.5,79.5C 204.443,78.391 204.11,77.391 203.5,76.5C 202.229,73.5674 200.562,70.9007 198.5,68.5C 200.141,66.7425 202.141,65.2425 204.5,64C 210.932,63.6761 217.265,62.8428 223.5,61.5C 223.5,59.8333 223.5,58.1667 223.5,56.5C 221.058,56.6463 220.391,55.813 221.5,54C 223.473,53.5045 225.473,53.3379 227.5,53.5C 228.758,50.3061 229.424,46.9728 229.5,43.5C 231.464,37.6763 231.964,31.6763 231,25.5C 230.392,23.9336 229.558,22.6002 228.5,21.5C 228.228,18.2678 226.562,16.2678 223.5,15.5C 223.586,14.5041 223.252,13.6708 222.5,13C 219.761,11.9741 217.428,10.4741 215.5,8.5C 216.105,6.97432 217.271,5.97432 219,5.5C 219.591,4.51654 219.257,3.84987 218,3.5C 216.274,3.94585 214.774,4.77919 213.5,6C 211.421,6.80766 209.421,6.64099 207.5,5.5C 210.028,4.18408 210.028,3.01741 207.5,2C 209.744,1.95042 211.411,1.11709 212.5,-0.5C 233.167,-0.5 253.833,-0.5 274.5,-0.5C 274.5,60.5 274.5,121.5 274.5,182.5C 182.833,182.5 91.1667,182.5 -0.5,182.5C -0.5,121.5 -0.5,60.5 -0.5,-0.5 Z"/></g>
<g><path style="opacity:1" fill="#f8fcfa" d="M 159.5,-0.5 C 177.167,-0.5 194.833,-0.5 212.5,-0.5C 211.411,1.11709 209.744,1.95042 207.5,2C 210.028,3.01741 210.028,4.18408 207.5,5.5C 209.421,6.64099 211.421,6.80766 213.5,6C 214.774,4.77919 216.274,3.94585 218,3.5C 219.257,3.84987 219.591,4.51654 219,5.5C 217.271,5.97432 216.105,6.97432 215.5,8.5C 205.286,5.57765 196.62,7.91098 189.5,15.5C 188.833,15.5 188.5,15.8333 188.5,16.5C 182.816,23.0827 180.983,30.7494 183,39.5C 183.941,41.7274 185.108,43.7274 186.5,45.5C 186.427,47.0269 187.094,48.0269 188.5,48.5C 193.209,54.25 199.376,57.25 207,57.5C 216.985,56.6561 224.485,51.9895 229.5,43.5C 229.424,46.9728 228.758,50.3061 227.5,53.5C 225.473,53.3379 223.473,53.5045 221.5,54C 220.391,55.813 221.058,56.6463 223.5,56.5C 223.5,58.1667 223.5,59.8333 223.5,61.5C 217.265,62.8428 210.932,63.6761 204.5,64C 202.141,65.2425 200.141,66.7425 198.5,68.5C 196.15,67.1389 193.816,65.8056 191.5,64.5C 191.5,64.1667 191.5,63.8333 191.5,63.5C 191.5,61.8333 191.5,60.1667 191.5,58.5C 193.942,58.6463 194.609,57.813 193.5,56C 188.355,53.6086 183.188,52.1086 178,51.5C 177.586,51.9574 177.086,52.2907 176.5,52.5C 149.536,51.8417 122.536,51.175 95.5,50.5C 122.536,49.1759 149.536,49.1759 176.5,50.5C 178.002,49.9169 179.335,49.0836 180.5,48C 179.319,43.4401 176.819,39.9401 173,37.5C 172.667,36.1667 172.333,34.8333 172,33.5C 170.173,35.3016 169.006,37.4682 168.5,40C 167.207,40.49 165.873,40.6567 164.5,40.5C 169.124,36.6117 170.624,31.6117 169,25.5C 168.722,24.5842 168.222,23.9175 167.5,23.5C 165.726,20.5835 163.393,18.0835 160.5,16C 146.436,9.82367 131.769,6.99033 116.5,7.5C 119.962,6.51836 123.629,6.18503 127.5,6.5C 127.5,5.5 127.5,4.5 127.5,3.5C 120.314,3.39702 113.147,3.73036 106,4.5C 99.8321,4.81606 99.3321,3.98273 104.5,2C 112.167,1.33333 119.833,1.33333 127.5,2C 130.627,2.39179 133.627,3.22512 136.5,4.5C 137.623,3.45627 138.956,2.78961 140.5,2.5C 145.17,3.43304 149.67,3.43304 154,2.5C 155.719,1.13124 157.552,0.131244 159.5,-0.5 Z"/></g>
<g><path style="opacity:1" fill="#4598c7" d="M 215.5,8.5 C 217.428,10.4741 219.761,11.9741 222.5,13C 223.252,13.6708 223.586,14.5041 223.5,15.5C 220.121,15.1467 217.121,13.8134 214.5,11.5C 210.832,12.8405 207.165,13.1739 203.5,12.5C 204.518,11.1476 205.851,10.1476 207.5,9.5C 203.883,8.28551 200.549,8.95218 197.5,11.5C 196.438,12.4246 196.438,13.4246 197.5,14.5C 196.391,14.5569 195.391,14.8902 194.5,15.5C 192.833,15.5 191.167,15.5 189.5,15.5C 196.62,7.91098 205.286,5.57765 215.5,8.5 Z"/></g>
<g><path style="opacity:1" fill="#4e93a0" d="M 95.5,13.5 C 94.4479,15.256 92.7812,15.9227 90.5,15.5C 91.7804,14.0687 93.4471,13.4021 95.5,13.5 Z"/></g>
<g><path style="opacity:1" fill="#2294d1" d="M 116.5,7.5 C 131.769,6.99033 146.436,9.82367 160.5,16C 163.393,18.0835 165.726,20.5835 167.5,23.5C 167.223,26.4475 167.556,29.2809 168.5,32C 166.649,33.7524 164.649,35.2524 162.5,36.5C 162.167,33.5 163.5,32.1667 166.5,32.5C 166.664,29.8127 166.497,27.146 166,24.5C 164.644,23.6198 163.144,23.2865 161.5,23.5C 161.22,26.2724 161.887,28.7724 163.5,31C 162.167,31.3333 160.833,31.6667 159.5,32C 134.167,32.6667 108.833,32.6667 83.5,32C 85.3211,29.8634 87.6544,29.0301 90.5,29.5C 90.5,28.5 90.5,27.5 90.5,26.5C 88.1667,26.5 85.8333,26.5 83.5,26.5C 83.5,27.5 83.5,28.5 83.5,29.5C 82.1667,29.5 80.8333,29.5 79.5,29.5C 79.5,28.5 79.5,27.5 79.5,26.5C 80.5,26.5 81.5,26.5 82.5,26.5C 82.5,25.5 82.5,24.5 82.5,23.5C 81.5,23.5 80.5,23.5 79.5,23.5C 79.5,22.8333 79.5,22.1667 79.5,21.5C 83.5977,20.7281 86.931,18.7281 89.5,15.5C 89.8333,15.5 90.1667,15.5 90.5,15.5C 92.7812,15.9227 94.4479,15.256 95.5,13.5C 102.361,10.9949 109.361,8.99491 116.5,7.5 Z"/></g>
<g><path style="opacity:1" fill="#1a99bf" d="M 111.5,11.5 C 116.875,11.1718 122.208,11.5052 127.5,12.5C 124.833,12.8333 122.167,13.1667 119.5,13.5C 116.41,13.4783 113.743,12.8117 111.5,11.5 Z"/></g>
<g><path style="opacity:1" fill="#2394ca" d="M 197.5,14.5 C 204.494,15.0559 211.494,15.7225 218.5,16.5C 219.375,18.7725 221.042,19.7725 223.5,19.5C 223.5,18.1667 223.5,16.8333 223.5,15.5C 226.562,16.2678 228.228,18.2678 228.5,21.5C 225.909,22.2543 224.076,23.921 223,26.5C 220.057,24.0994 217.223,21.5994 214.5,19C 209.464,18.2627 204.464,17.4294 199.5,16.5C 197.401,20.3044 194.567,23.6377 191,26.5C 190.699,29.5071 190.865,32.5071 191.5,35.5C 190.167,35.5 188.833,35.5 187.5,35.5C 187.41,33.3037 187.077,31.137 186.5,29C 188.638,26.2186 189.804,23.0519 190,19.5C 191.067,18.8095 192.234,18.3095 193.5,18C 194.252,17.3292 194.586,16.4959 194.5,15.5C 195.391,14.8902 196.391,14.5569 197.5,14.5 Z"/></g>
<g><path style="opacity:1" fill="#2293d9" d="M 223.5,15.5 C 223.5,16.8333 223.5,18.1667 223.5,19.5C 221.042,19.7725 219.375,18.7725 218.5,16.5C 211.494,15.7225 204.494,15.0559 197.5,14.5C 196.438,13.4246 196.438,12.4246 197.5,11.5C 200.549,8.95218 203.883,8.28551 207.5,9.5C 205.851,10.1476 204.518,11.1476 203.5,12.5C 207.165,13.1739 210.832,12.8405 214.5,11.5C 217.121,13.8134 220.121,15.1467 223.5,15.5 Z"/></g>
<g><path style="opacity:1" fill="#4692b3" d="M 89.5,15.5 C 86.931,18.7281 83.5977,20.7281 79.5,21.5C 82.4937,19.0002 85.827,17.0002 89.5,15.5 Z"/></g>
<g><path style="opacity:1" fill="#4291bb" d="M 217.5,33.5 C 217.678,34.6948 218.011,35.8615 218.5,37C 214.237,42.6967 208.57,44.6967 201.5,43C 200.663,41.9887 200.33,40.8221 200.5,39.5C 203.931,41.3878 207.598,41.8878 211.5,41C 212.381,40.2917 213.047,39.4584 213.5,38.5C 218.093,32.6314 217.093,27.7981 210.5,24C 207.833,23.3333 205.167,23.3333 202.5,24C 201.944,24.3826 201.611,24.8826 201.5,25.5C 199.806,26.5274 198.473,27.8608 197.5,29.5C 197.269,26.2155 198.603,23.7155 201.5,22C 207.316,20.591 212.483,21.7576 217,25.5C 217.497,28.146 217.664,30.8127 217.5,33.5 Z"/></g>
<g><path style="opacity:1" fill="#f6fbf7" d="M 213.5,38.5 C 210.475,38.8769 207.475,39.0435 204.5,39C 202.957,37.1217 201.124,35.6217 199,34.5C 199.765,31.5906 200.599,28.5906 201.5,25.5C 201.611,24.8826 201.944,24.3826 202.5,24C 205.167,23.3333 207.833,23.3333 210.5,24C 217.093,27.7981 218.093,32.6314 213.5,38.5 Z"/></g>
<g><path style="opacity:1" fill="#1d94d7" d="M 188.5,16.5 C 188.5,15.8333 188.833,15.5 189.5,15.5C 191.167,15.5 192.833,15.5 194.5,15.5C 194.586,16.4959 194.252,17.3292 193.5,18C 192.234,18.3095 191.067,18.8095 190,19.5C 189.804,23.0519 188.638,26.2186 186.5,29C 187.077,31.137 187.41,33.3037 187.5,35.5C 188.833,35.5 190.167,35.5 191.5,35.5C 190.865,32.5071 190.699,29.5071 191,26.5C 194.567,23.6377 197.401,20.3044 199.5,16.5C 204.464,17.4294 209.464,18.2627 214.5,19C 217.223,21.5994 220.057,24.0994 223,26.5C 224.076,23.921 225.909,22.2543 228.5,21.5C 228.808,23.924 228.474,26.2573 227.5,28.5C 224.537,30.8941 221.203,32.5608 217.5,33.5C 217.664,30.8127 217.497,28.146 217,25.5C 212.483,21.7576 207.316,20.591 201.5,22C 198.603,23.7155 197.269,26.2155 197.5,29.5C 197.5,30.1667 197.5,30.8333 197.5,31.5C 196.5,31.5 195.5,31.5 194.5,31.5C 194.322,34.2165 193.822,36.8832 193,39.5C 192.667,39.1667 192.333,38.8333 192,38.5C 191.502,41.8168 191.335,45.1501 191.5,48.5C 190.5,48.5 189.5,48.5 188.5,48.5C 187.094,48.0269 186.427,47.0269 186.5,45.5C 186.5,42.8333 186.5,40.1667 186.5,37.5C 185.5,37.5 184.5,37.5 183.5,37.5C 182.748,29.8429 184.748,23.0096 189.5,17C 189.272,16.6012 188.938,16.4346 188.5,16.5 Z"/></g>
<g><path style="opacity:1" fill="#3096d6" d="M 79.5,23.5 C 80.5,23.5 81.5,23.5 82.5,23.5C 82.5,24.5 82.5,25.5 82.5,26.5C 81.5,26.5 80.5,26.5 79.5,26.5C 79.5,27.5 79.5,28.5 79.5,29.5C 80.8333,29.5 82.1667,29.5 83.5,29.5C 83.5,28.5 83.5,27.5 83.5,26.5C 85.8333,26.5 88.1667,26.5 90.5,26.5C 90.5,27.5 90.5,28.5 90.5,29.5C 87.6544,29.0301 85.3211,29.8634 83.5,32C 108.833,32.6667 134.167,32.6667 159.5,32C 160.833,31.6667 162.167,31.3333 163.5,31C 161.887,28.7724 161.22,26.2724 161.5,23.5C 163.144,23.2865 164.644,23.6198 166,24.5C 166.497,27.146 166.664,29.8127 166.5,32.5C 163.5,32.1667 162.167,33.5 162.5,36.5C 162.69,38.9589 161.69,40.6255 159.5,41.5C 133.5,42.1667 107.5,42.8333 81.5,43.5C 80.5084,43.3284 79.8417,43.6618 79.5,44.5C 78.8333,44.5 78.1667,44.5 77.5,44.5C 76.1843,42.1775 74.8509,39.8442 73.5,37.5C 73.9391,35.8957 74.6057,34.3957 75.5,33C 73.8592,31.3542 74.1925,30.3542 76.5,30C 76.0426,29.586 75.7093,29.086 75.5,28.5C 76.767,26.6829 78.1003,25.0163 79.5,23.5 Z"/></g>
<g><path style="opacity:1" fill="#2a96c9" d="M 79.5,21.5 C 79.5,22.1667 79.5,22.8333 79.5,23.5C 78.1003,25.0163 76.767,26.6829 75.5,28.5C 75.7093,29.086 76.0426,29.586 76.5,30C 74.1925,30.3542 73.8592,31.3542 75.5,33C 74.6057,34.3957 73.9391,35.8957 73.5,37.5C 74.8509,39.8442 76.1843,42.1775 77.5,44.5C 76.8333,44.5 76.1667,44.5 75.5,44.5C 74.1667,44.5 72.8333,44.5 71.5,44.5C 71.2627,45.791 71.596,46.791 72.5,47.5C 73.1579,74.5209 72.4912,101.188 70.5,127.5C 70.5,100.833 70.5,74.1667 70.5,47.5C 69.5,47.5 68.5,47.5 67.5,47.5C 70.7612,42.2101 69.7612,37.8767 64.5,34.5C 65.5434,31.9438 67.2101,29.7772 69.5,28C 72.4466,25.2166 75.78,23.0499 79.5,21.5 Z"/></g>
<g><path style="opacity:1" fill="#3696b7" d="M 167.5,23.5 C 168.222,23.9175 168.722,24.5842 169,25.5C 170.624,31.6117 169.124,36.6117 164.5,40.5C 162.883,41.038 161.216,41.3713 159.5,41.5C 161.69,40.6255 162.69,38.9589 162.5,36.5C 164.649,35.2524 166.649,33.7524 168.5,32C 167.556,29.2809 167.223,26.4475 167.5,23.5 Z"/></g>
<g><path style="opacity:1" fill="#1b96cd" d="M 77.5,34.5 C 99.4649,35.1458 121.465,35.8125 143.5,36.5C 121.68,36.8571 100.014,37.8571 78.5,39.5C 77.5481,37.9547 77.2148,36.288 77.5,34.5 Z"/></g>
<g><path style="opacity:1" fill="#fcfdfc" d="M 191.5,63.5 C 188.779,63.0372 186.112,62.3705 183.5,61.5C 169.004,60.8334 154.337,60.5001 139.5,60.5C 124.484,60.5006 109.818,61.1673 95.5,62.5C 95.5,62.8333 95.5,63.1667 95.5,63.5C 95.5,79.8333 95.5,96.1667 95.5,112.5C 95.5,113.167 95.5,113.833 95.5,114.5C 95.5,115.5 95.5,116.5 95.5,117.5C 112.992,118.497 130.659,118.83 148.5,118.5C 149.197,120.071 149.53,121.571 149.5,123C 152.817,123.498 156.15,123.665 159.5,123.5C 159.79,127.554 159.123,128.054 157.5,125C 155.741,124.202 154.074,124.369 152.5,125.5C 152.709,126.086 153.043,126.586 153.5,127C 134.167,127.333 114.833,127.667 95.5,128C 116.833,128.333 138.167,128.667 159.5,129C 161.359,129.684 163.026,130.684 164.5,132C 152.199,131.886 139.866,131.719 127.5,131.5C 111.395,131.502 95.3951,132.502 79.5,134.5C 78.8783,133.373 78.045,132.373 77,131.5C 76.3333,103.5 76.3333,75.5 77,47.5C 77.7083,46.6195 78.5416,45.9528 79.5,45.5C 106.095,46.3244 132.761,46.8244 159.5,47C 138.167,47.3333 116.833,47.6667 95.5,48C 122.167,48.6667 148.833,48.6667 175.5,48C 169.899,47.954 164.566,46.7873 159.5,44.5C 133.509,43.5002 107.509,43.1669 81.5,43.5C 107.5,42.8333 133.5,42.1667 159.5,41.5C 161.216,41.3713 162.883,41.038 164.5,40.5C 165.873,40.6567 167.207,40.49 168.5,40C 169.006,37.4682 170.173,35.3016 172,33.5C 172.333,34.8333 172.667,36.1667 173,37.5C 176.819,39.9401 179.319,43.4401 180.5,48C 179.335,49.0836 178.002,49.9169 176.5,50.5C 149.536,49.1759 122.536,49.1759 95.5,50.5C 122.536,51.175 149.536,51.8417 176.5,52.5C 177.086,52.2907 177.586,51.9574 178,51.5C 183.188,52.1086 188.355,53.6086 193.5,56C 194.609,57.813 193.942,58.6463 191.5,58.5C 191.5,60.1667 191.5,61.8333 191.5,63.5 Z"/></g>
<g><path style="opacity:1" fill="#4894ba" d="M 188.5,16.5 C 188.938,16.4346 189.272,16.6012 189.5,17C 184.748,23.0096 182.748,29.8429 183.5,37.5C 184.5,37.5 185.5,37.5 186.5,37.5C 186.5,40.1667 186.5,42.8333 186.5,45.5C 185.108,43.7274 183.941,41.7274 183,39.5C 180.983,30.7494 182.816,23.0827 188.5,16.5 Z"/></g>
<g><path style="opacity:1" fill="#dff9fd" d="M 201.5,25.5 C 200.599,28.5906 199.765,31.5906 199,34.5C 201.124,35.6217 202.957,37.1217 204.5,39C 207.475,39.0435 210.475,38.8769 213.5,38.5C 213.047,39.4584 212.381,40.2917 211.5,41C 207.598,41.8878 203.931,41.3878 200.5,39.5C 198.394,37.2812 197.394,34.6145 197.5,31.5C 197.5,30.8333 197.5,30.1667 197.5,29.5C 198.473,27.8608 199.806,26.5274 201.5,25.5 Z"/></g>
<g><path style="opacity:1" fill="#2794cf" d="M 228.5,21.5 C 229.558,22.6002 230.392,23.9336 231,25.5C 231.964,31.6763 231.464,37.6763 229.5,43.5C 224.485,51.9895 216.985,56.6561 207,57.5C 199.376,57.25 193.209,54.25 188.5,48.5C 189.5,48.5 190.5,48.5 191.5,48.5C 191.335,45.1501 191.502,41.8168 192,38.5C 192.333,38.8333 192.667,39.1667 193,39.5C 193.822,36.8832 194.322,34.2165 194.5,31.5C 195.5,31.5 196.5,31.5 197.5,31.5C 197.394,34.6145 198.394,37.2812 200.5,39.5C 200.33,40.8221 200.663,41.9887 201.5,43C 208.57,44.6967 214.237,42.6967 218.5,37C 218.011,35.8615 217.678,34.6948 217.5,33.5C 221.203,32.5608 224.537,30.8941 227.5,28.5C 228.474,26.2573 228.808,23.924 228.5,21.5 Z"/></g>
<g><path style="opacity:1" fill="#fbfdf4" d="M 81.5,43.5 C 107.509,43.1669 133.509,43.5002 159.5,44.5C 164.566,46.7873 169.899,47.954 175.5,48C 148.833,48.6667 122.167,48.6667 95.5,48C 116.833,47.6667 138.167,47.3333 159.5,47C 132.761,46.8244 106.095,46.3244 79.5,45.5C 79.5,45.1667 79.5,44.8333 79.5,44.5C 79.8417,43.6618 80.5084,43.3284 81.5,43.5 Z"/></g>
<g><path style="opacity:1" fill="#4f98bf" d="M 75.5,44.5 C 76.1667,44.5 76.8333,44.5 77.5,44.5C 78.1667,44.5 78.8333,44.5 79.5,44.5C 79.5,44.8333 79.5,45.1667 79.5,45.5C 78.5416,45.9528 77.7083,46.6195 77,47.5C 76.3333,75.5 76.3333,103.5 77,131.5C 78.045,132.373 78.8783,133.373 79.5,134.5C 80.3065,135.728 81.3065,136.728 82.5,137.5C 76.5467,136.874 73.88,133.54 74.5,127.5C 75.4979,100.005 75.8313,72.3384 75.5,44.5 Z"/></g>
<g><path style="opacity:1" fill="#3197c5" d="M 63.5,35.5 C 63.045,37.3666 62.3784,39.1999 61.5,41C 61.8333,41.8333 62.1667,42.6667 62.5,43.5C 63.1667,42.1667 63.8333,40.8333 64.5,39.5C 65.8974,42.6476 65.2307,45.3143 62.5,47.5C 61.0316,45.6671 59.3649,45.3338 57.5,46.5C 55.8704,49.2981 54.0371,51.9648 52,54.5C 51.5545,57.6616 52.0545,60.6616 53.5,63.5C 51.3284,62.7945 49.3284,61.7945 47.5,60.5C 51.2321,51.1094 56.5654,42.7761 63.5,35.5 Z"/></g>
<g><path style="opacity:1" fill="#569ec6" d="M 183.5,61.5 C 179.823,61.1517 177.156,61.8183 175.5,63.5C 149.005,62.5021 122.339,62.1688 95.5,62.5C 109.818,61.1673 124.484,60.5006 139.5,60.5C 154.337,60.5001 169.004,60.8334 183.5,61.5 Z"/></g>
<g><path style="opacity:1" fill="#1e94d3" d="M 64.5,34.5 C 69.7612,37.8767 70.7612,42.2101 67.5,47.5C 68.5,47.5 69.5,47.5 70.5,47.5C 70.5,74.1667 70.5,100.833 70.5,127.5C 68.6744,104.188 67.841,80.5212 68,56.5C 67.6667,55.5 67.3333,54.5 67,53.5C 66,54.8333 65,54.8333 64,53.5C 63.5017,56.8168 63.335,60.1501 63.5,63.5C 64.5,63.5 65.5,63.5 66.5,63.5C 66.6666,84.8359 66.5,106.169 66,127.5C 64.3904,137.953 63.5571,137.953 63.5,127.5C 62.5,127.5 61.5,127.5 60.5,127.5C 60.4533,124.432 59.9533,121.432 59,118.5C 55.9033,115.318 54.2366,115.985 54,120.5C 53.6667,120.167 53.3333,119.833 53,119.5C 52.8253,116.843 52.9919,114.176 53.5,111.5C 51.1667,111.5 48.8333,111.5 46.5,111.5C 46.5,108.833 46.5,106.167 46.5,103.5C 45.5,103.5 44.5,103.5 43.5,103.5C 41.3502,88.762 42.6835,74.4286 47.5,60.5C 49.3284,61.7945 51.3284,62.7945 53.5,63.5C 52.0545,60.6616 51.5545,57.6616 52,54.5C 54.0371,51.9648 55.8704,49.2981 57.5,46.5C 59.3649,45.3338 61.0316,45.6671 62.5,47.5C 65.2307,45.3143 65.8974,42.6476 64.5,39.5C 63.8333,40.8333 63.1667,42.1667 62.5,43.5C 62.1667,42.6667 61.8333,41.8333 61.5,41C 62.3784,39.1999 63.045,37.3666 63.5,35.5C 63.5,34.8333 63.8333,34.5 64.5,34.5 Z"/></g>
<g><path style="opacity:1" fill="#1798e7" d="M 75.5,44.5 C 75.8313,72.3384 75.4979,100.005 74.5,127.5C 73.8333,100.833 73.1667,74.1667 72.5,47.5C 71.596,46.791 71.2627,45.791 71.5,44.5C 72.8333,44.5 74.1667,44.5 75.5,44.5 Z"/></g>
<g><path style="opacity:1" fill="#1c94d1" d="M 95.5,63.5 C 96.8333,63.5 98.1667,63.5 99.5,63.5C 99.5,79.5 99.5,95.5 99.5,111.5C 100.5,111.5 101.5,111.5 102.5,111.5C 102.5,95.5 102.5,79.5 102.5,63.5C 104.833,63.5 107.167,63.5 109.5,63.5C 109.167,79.5139 109.501,95.5139 110.5,111.5C 120.51,110.236 120.843,108.403 111.5,106C 115.098,105.846 118.431,104.846 121.5,103C 129.493,102.5 137.493,102.334 145.5,102.5C 147.265,103.461 149.265,103.795 151.5,103.5C 151.5,104.833 151.5,106.167 151.5,107.5C 148.753,107.187 146.086,107.52 143.5,108.5C 144.243,109.182 144.909,109.849 145.5,110.5C 144.508,110.328 143.842,110.662 143.5,111.5C 127.675,112.496 111.675,112.83 95.5,112.5C 95.5,96.1667 95.5,79.8333 95.5,63.5 Z"/></g>
<g><path style="opacity:1" fill="#2094d5" d="M 95.5,63.5 C 95.5,63.1667 95.5,62.8333 95.5,62.5C 122.339,62.1688 149.005,62.5021 175.5,63.5C 154.167,63.5 132.833,63.5 111.5,63.5C 110.732,71.9539 111.732,79.9539 114.5,87.5C 114.5,89.5 114.5,91.5 114.5,93.5C 114.383,95.4835 115.05,97.1502 116.5,98.5C 114.955,99.4519 113.288,99.7852 111.5,99.5C 111.5,100.5 111.5,101.5 111.5,102.5C 119.715,101.057 128.048,100.39 136.5,100.5C 141.5,100.833 146.5,101.167 151.5,101.5C 149.604,102.466 147.604,102.799 145.5,102.5C 137.493,102.334 129.493,102.5 121.5,103C 118.431,104.846 115.098,105.846 111.5,106C 120.843,108.403 120.51,110.236 110.5,111.5C 109.501,95.5139 109.167,79.5139 109.5,63.5C 107.167,63.5 104.833,63.5 102.5,63.5C 102.5,79.5 102.5,95.5 102.5,111.5C 101.5,111.5 100.5,111.5 99.5,111.5C 99.5,95.5 99.5,79.5 99.5,63.5C 98.1667,63.5 96.8333,63.5 95.5,63.5 Z"/></g>
<g><path style="opacity:1" fill="#1f94d0" d="M 183.5,61.5 C 186.112,62.3705 188.779,63.0372 191.5,63.5C 191.5,63.8333 191.5,64.1667 191.5,64.5C 191.192,66.924 191.526,69.2573 192.5,71.5C 193.85,70.0499 195.516,69.3832 197.5,69.5C 197.15,72.0408 197.15,74.3742 197.5,76.5C 195.825,88.0752 194.492,99.7419 193.5,111.5C 194.5,111.5 195.5,111.5 196.5,111.5C 198.049,100.906 198.716,90.2398 198.5,79.5C 199.5,79.5 200.5,79.5 201.5,79.5C 202.067,90.3816 201.233,101.048 199,111.5C 198.163,113.844 196.829,115.844 195,117.5C 194.39,120.827 193.89,124.161 193.5,127.5C 194.5,127.5 195.5,127.5 196.5,127.5C 189.915,140.75 180.249,151.083 167.5,158.5C 167.943,155.376 169.61,153.043 172.5,151.5C 172.333,151.167 172.167,150.833 172,150.5C 167.685,149.827 163.518,149.827 159.5,150.5C 159.5,149.167 159.5,147.833 159.5,146.5C 164.467,147.174 168.8,145.84 172.5,142.5C 172,141.119 171,140.453 169.5,140.5C 167.673,142.051 165.506,143.051 163,143.5C 138.479,142.974 113.979,142.14 89.5,141C 90.7287,140.219 92.062,139.719 93.5,139.5C 102.14,140.139 110.807,140.472 119.5,140.5C 133.029,140.612 146.362,139.945 159.5,138.5C 163.247,138.608 166.914,138.108 170.5,137C 171.071,135.795 171.738,134.628 172.5,133.5C 173.833,116.833 173.833,100.167 172.5,83.5C 171.636,81.8035 170.303,80.6368 168.5,80C 152.661,79.172 136.995,79.3387 121.5,80.5C 118.195,81.8051 115.862,84.1384 114.5,87.5C 111.732,79.9539 110.732,71.9539 111.5,63.5C 132.833,63.5 154.167,63.5 175.5,63.5C 177.156,61.8183 179.823,61.1517 183.5,61.5 Z"/></g>
<g><path style="opacity:1" fill="#3098c5" d="M 191.5,64.5 C 193.816,65.8056 196.15,67.1389 198.5,68.5C 200.562,70.9007 202.229,73.5674 203.5,76.5C 201.5,76.5 199.5,76.5 197.5,76.5C 197.15,74.3742 197.15,72.0408 197.5,69.5C 195.516,69.3832 193.85,70.0499 192.5,71.5C 191.526,69.2573 191.192,66.924 191.5,64.5 Z"/></g>
<g><path style="opacity:1" fill="#1f93d9" d="M 197.5,76.5 C 199.5,76.5 201.5,76.5 203.5,76.5C 204.11,77.391 204.443,78.391 204.5,79.5C 204.813,90.2616 204.147,100.928 202.5,111.5C 202.567,112.959 202.234,114.292 201.5,115.5C 198.772,118.968 197.105,122.968 196.5,127.5C 195.5,127.5 194.5,127.5 193.5,127.5C 193.89,124.161 194.39,120.827 195,117.5C 196.829,115.844 198.163,113.844 199,111.5C 201.233,101.048 202.067,90.3816 201.5,79.5C 200.5,79.5 199.5,79.5 198.5,79.5C 198.716,90.2398 198.049,100.906 196.5,111.5C 195.5,111.5 194.5,111.5 193.5,111.5C 194.492,99.7419 195.825,88.0752 197.5,76.5 Z"/></g>
<g><path style="opacity:1" fill="#f8fcfa" d="M 170.5,131.5 C 169.522,134.971 167.188,136.805 163.5,137C 137.835,137.5 112.169,137.667 86.5,137.5C 85.1667,137.5 83.8333,137.5 82.5,137.5C 81.3065,136.728 80.3065,135.728 79.5,134.5C 95.3951,132.502 111.395,131.502 127.5,131.5C 139.866,131.719 152.199,131.886 164.5,132C 163.026,130.684 161.359,129.684 159.5,129C 138.167,128.667 116.833,128.333 95.5,128C 114.833,127.667 134.167,127.333 153.5,127C 153.043,126.586 152.709,126.086 152.5,125.5C 154.074,124.369 155.741,124.202 157.5,125C 159.123,128.054 159.79,127.554 159.5,123.5C 156.15,123.665 152.817,123.498 149.5,123C 149.53,121.571 149.197,120.071 148.5,118.5C 150.167,118.5 151.833,118.5 153.5,118.5C 153.823,111.978 153.49,105.645 152.5,99.5C 142.161,99.6665 131.828,99.4998 121.5,99C 119.676,98.34 118.343,97.1733 117.5,95.5C 117.335,92.4816 117.502,89.4816 118,86.5C 119.808,84.6041 121.975,84.1041 124.5,85C 123.228,86.246 122.895,87.4126 123.5,88.5C 125.217,87.3315 125.884,85.6648 125.5,83.5C 139.171,83.3334 152.837,83.5001 166.5,84C 167.333,84.8333 168.167,85.6667 169,86.5C 169.27,89.2241 169.77,91.8908 170.5,94.5C 169.206,106.821 169.206,119.154 170.5,131.5 Z"/></g>
<g><path style="opacity:1" fill="#469bc1" d="M 204.5,79.5 C 206.006,82.356 206.672,85.5226 206.5,89C 206.339,96.8437 205.006,104.344 202.5,111.5C 204.147,100.928 204.813,90.2616 204.5,79.5 Z"/></g>
<g><path style="opacity:1" fill="#f0fbfd" d="M 121.5,80.5 C 136.17,80.3334 150.837,80.5001 165.5,81C 167.305,81.972 168.972,83.1387 170.5,84.5C 171.827,100.328 171.827,115.995 170.5,131.5C 169.206,119.154 169.206,106.821 170.5,94.5C 169.77,91.8908 169.27,89.2241 169,86.5C 168.167,85.6667 167.333,84.8333 166.5,84C 152.837,83.5001 139.171,83.3334 125.5,83.5C 125.884,85.6648 125.217,87.3315 123.5,88.5C 122.895,87.4126 123.228,86.246 124.5,85C 121.975,84.1041 119.808,84.6041 118,86.5C 117.502,89.4816 117.335,92.4816 117.5,95.5C 116.778,94.4489 115.778,93.7822 114.5,93.5C 114.5,91.5 114.5,89.5 114.5,87.5C 115.862,84.1384 118.195,81.8051 121.5,80.5 Z"/></g>
<g><path style="opacity:1" fill="#fefbeb" d="M 126.5,92.5 C 127.434,93.5676 127.768,94.901 127.5,96.5C 134.532,96.1697 141.532,96.503 148.5,97.5C 140.193,98.4979 131.86,98.8312 123.5,98.5C 124.044,96.2845 125.044,94.2845 126.5,92.5 Z"/></g>
<g><path style="opacity:1" fill="#2d8ec2" d="M 114.5,93.5 C 115.778,93.7822 116.778,94.4489 117.5,95.5C 118.343,97.1733 119.676,98.34 121.5,99C 131.828,99.4998 142.161,99.6665 152.5,99.5C 152.5,103.167 152.5,106.833 152.5,110.5C 150.167,110.5 147.833,110.5 145.5,110.5C 144.909,109.849 144.243,109.182 143.5,108.5C 146.086,107.52 148.753,107.187 151.5,107.5C 151.5,106.167 151.5,104.833 151.5,103.5C 149.265,103.795 147.265,103.461 145.5,102.5C 147.604,102.799 149.604,102.466 151.5,101.5C 146.5,101.167 141.5,100.833 136.5,100.5C 128.048,100.39 119.715,101.057 111.5,102.5C 111.5,101.5 111.5,100.5 111.5,99.5C 113.288,99.7852 114.955,99.4519 116.5,98.5C 115.05,97.1502 114.383,95.4835 114.5,93.5 Z"/></g>
<g><path style="opacity:1" fill="#2595be" d="M 143.5,111.5 C 144.404,112.209 144.737,113.209 144.5,114.5C 128.167,114.5 111.833,114.5 95.5,114.5C 95.5,113.833 95.5,113.167 95.5,112.5C 111.675,112.83 127.675,112.496 143.5,111.5 Z"/></g>
<g><path style="opacity:1" fill="#1d97df" d="M 143.5,111.5 C 143.842,110.662 144.508,110.328 145.5,110.5C 147.833,110.5 150.167,110.5 152.5,110.5C 151.791,111.404 150.791,111.737 149.5,111.5C 149.5,113.5 149.5,115.5 149.5,117.5C 131.5,117.5 113.5,117.5 95.5,117.5C 95.5,116.5 95.5,115.5 95.5,114.5C 111.833,114.5 128.167,114.5 144.5,114.5C 144.737,113.209 144.404,112.209 143.5,111.5 Z"/></g>
<g><path style="opacity:1" fill="#5ba6c0" d="M 152.5,99.5 C 153.49,105.645 153.823,111.978 153.5,118.5C 151.833,118.5 150.167,118.5 148.5,118.5C 130.659,118.83 112.992,118.497 95.5,117.5C 113.5,117.5 131.5,117.5 149.5,117.5C 149.5,115.5 149.5,113.5 149.5,111.5C 150.791,111.737 151.791,111.404 152.5,110.5C 152.5,106.833 152.5,103.167 152.5,99.5 Z"/></g>
<g><path style="opacity:1" fill="#3e8fb4" d="M 201.5,115.5 C 200.69,119.938 199.023,123.938 196.5,127.5C 197.105,122.968 198.772,118.968 201.5,115.5 Z"/></g>
<g><path style="opacity:1" fill="#2394ce" d="M 72.5,47.5 C 73.1667,74.1667 73.8333,100.833 74.5,127.5C 73.88,133.54 76.5467,136.874 82.5,137.5C 83.8333,137.5 85.1667,137.5 86.5,137.5C 86.5,137.833 86.5,138.167 86.5,138.5C 83.5525,138.223 80.7191,138.556 78,139.5C 77.2195,140.944 77.3861,142.277 78.5,143.5C 79.8544,141.816 81.5211,141.316 83.5,142C 82.5495,145.057 82.2161,148.223 82.5,151.5C 84.9582,151.227 86.6249,152.227 87.5,154.5C 86.1764,157.198 86.1764,159.864 87.5,162.5C 63.4011,150.009 48.7344,130.342 43.5,103.5C 44.5,103.5 45.5,103.5 46.5,103.5C 46.5,106.167 46.5,108.833 46.5,111.5C 48.8333,111.5 51.1667,111.5 53.5,111.5C 52.9919,114.176 52.8253,116.843 53,119.5C 53.3333,119.833 53.6667,120.167 54,120.5C 54.2366,115.985 55.9033,115.318 59,118.5C 59.9533,121.432 60.4533,124.432 60.5,127.5C 61.5,127.5 62.5,127.5 63.5,127.5C 63.5571,137.953 64.3904,137.953 66,127.5C 66.5,106.169 66.6666,84.8359 66.5,63.5C 65.5,63.5 64.5,63.5 63.5,63.5C 63.335,60.1501 63.5017,56.8168 64,53.5C 65,54.8333 66,54.8333 67,53.5C 67.3333,54.5 67.6667,55.5 68,56.5C 67.841,80.5212 68.6744,104.188 70.5,127.5C 72.4912,101.188 73.1579,74.5209 72.5,47.5 Z"/></g>
<g><path style="opacity:1" fill="#5c97be" d="M 121.5,80.5 C 136.995,79.3387 152.661,79.172 168.5,80C 170.303,80.6368 171.636,81.8035 172.5,83.5C 173.833,100.167 173.833,116.833 172.5,133.5C 171.738,134.628 171.071,135.795 170.5,137C 166.914,138.108 163.247,138.608 159.5,138.5C 135.167,138.5 110.833,138.5 86.5,138.5C 86.5,138.167 86.5,137.833 86.5,137.5C 112.169,137.667 137.835,137.5 163.5,137C 167.188,136.805 169.522,134.971 170.5,131.5C 171.827,115.995 171.827,100.328 170.5,84.5C 168.972,83.1387 167.305,81.972 165.5,81C 150.837,80.5001 136.17,80.3334 121.5,80.5 Z"/></g>
<g><path style="opacity:1" fill="#1f93d2" d="M 86.5,138.5 C 110.833,138.5 135.167,138.5 159.5,138.5C 146.362,139.945 133.029,140.612 119.5,140.5C 110.807,140.472 102.14,140.139 93.5,139.5C 92.062,139.719 90.7287,140.219 89.5,141C 113.979,142.14 138.479,142.974 163,143.5C 165.506,143.051 167.673,142.051 169.5,140.5C 171,140.453 172,141.119 172.5,142.5C 168.8,145.84 164.467,147.174 159.5,146.5C 159.5,147.833 159.5,149.167 159.5,150.5C 163.518,149.827 167.685,149.827 172,150.5C 172.167,150.833 172.333,151.167 172.5,151.5C 169.61,153.043 167.943,155.376 167.5,158.5C 164.534,160.988 161.201,162.988 157.5,164.5C 153.196,162.38 148.529,161.38 143.5,161.5C 143.5,162.5 143.5,163.5 143.5,164.5C 148.843,164.601 149.343,165.601 145,167.5C 143.211,166.591 141.377,166.424 139.5,167C 138.529,168.481 137.196,169.315 135.5,169.5C 136.598,168.603 136.598,167.77 135.5,167C 126.179,167.066 116.846,167.399 107.5,168C 109.066,168.608 110.4,169.442 111.5,170.5C 102.899,169.357 94.8985,166.69 87.5,162.5C 86.1764,159.864 86.1764,157.198 87.5,154.5C 86.6249,152.227 84.9582,151.227 82.5,151.5C 82.2161,148.223 82.5495,145.057 83.5,142C 81.5211,141.316 79.8544,141.816 78.5,143.5C 77.3861,142.277 77.2195,140.944 78,139.5C 80.7191,138.556 83.5525,138.223 86.5,138.5 Z"/></g>
<g><path style="opacity:1" fill="#3093c2" d="M 157.5,164.5 C 142.838,170.867 127.505,173.2 111.5,171.5C 111.5,171.167 111.5,170.833 111.5,170.5C 119.517,170.499 127.517,170.166 135.5,169.5C 137.196,169.315 138.529,168.481 139.5,167C 141.377,166.424 143.211,166.591 145,167.5C 149.343,165.601 148.843,164.601 143.5,164.5C 143.5,163.5 143.5,162.5 143.5,161.5C 148.529,161.38 153.196,162.38 157.5,164.5 Z"/></g>
<g><path style="opacity:1" fill="#1894dd" d="M 135.5,169.5 C 127.517,170.166 119.517,170.499 111.5,170.5C 110.4,169.442 109.066,168.608 107.5,168C 116.846,167.399 126.179,167.066 135.5,167C 136.598,167.77 136.598,168.603 135.5,169.5 Z"/></g>
<g><path style="opacity:1" fill="#fcfaeb" d="M 111.5,171.5 C 113.969,172.317 116.635,172.817 119.5,173C 118.228,174.046 116.728,174.546 115,174.5C 107.3,174.048 99.8,172.881 92.5,171C 93.6001,169.977 94.9334,169.477 96.5,169.5C 101.377,171.042 106.377,171.709 111.5,171.5 Z"/></g>
</svg>
