<?xml version="1.0" encoding="UTF-8" standalone="no"?>
<!-- Created with Inkscape (http://www.inkscape.org/) -->

<svg
   version="1.1"
   id="svg2"
   xml:space="preserve"
   width="228.30667"
   height="219.70667"
   viewBox="0 0 228.30667 219.70667"
   sodipodi:docname="sml_pms_c_non.eps"
   xmlns:inkscape="http://www.inkscape.org/namespaces/inkscape"
   xmlns:sodipodi="http://sodipodi.sourceforge.net/DTD/sodipodi-0.dtd"
   xmlns="http://www.w3.org/2000/svg"
   xmlns:svg="http://www.w3.org/2000/svg"><defs
     id="defs6" /><sodipodi:namedview
     id="namedview4"
     pagecolor="#ffffff"
     bordercolor="#666666"
     borderopacity="1.0"
     inkscape:pageshadow="2"
     inkscape:pageopacity="0.0"
     inkscape:pagecheckerboard="0" /><g
     id="g8"
     inkscape:groupmode="layer"
     inkscape:label="ink_ext_XXXXXX"
     transform="matrix(1.3333333,0,0,-1.3333333,0,219.70667)"><g
       id="g10"
       transform="scale(0.1)"><path
         d="m 1128.91,657.047 c 25.45,35.109 38.28,80.441 38.28,136.125 0,33.656 -4.75,63.035 -12.8,89.148 -28.78,-27.679 -47.44,-61.746 -47.44,-103.281 0,-33.758 7.07,-77.226 21.96,-121.992"
         style="fill:#f48412;fill-opacity:1;fill-rule:nonzero;stroke:none"
         id="path12" /><path
         d="m 1450.7,978.941 c 8.95,-48.914 13.25,-98.457 13.25,-146.566 0,-181.891 -35.43,-312.145 -89.57,-405.273 9.12,-0.954 18.33,-1.672 27.94,-1.672 254.69,0 309.95,236.988 309.95,340.008 0,164.945 -168.73,209.167 -261.57,213.503"
         style="fill:#f48412;fill-opacity:1;fill-rule:nonzero;stroke:none"
         id="path14" /><path
         d="m 1194.55,793.172 c 0,-69.141 -19.32,-123.723 -55,-164.863 9.75,-23.789 21.64,-47.489 36.04,-69.848 49.9,57.418 75.39,139.914 75.39,247.746 0,45.301 -7.52,87.422 -20.84,126.102 -19.01,-8.946 -37.07,-19.094 -53.13,-30.903 10.82,-31.211 17.54,-66.621 17.54,-108.234"
         style="fill:#f48412;fill-opacity:1;fill-rule:nonzero;stroke:none"
         id="path16" /><path
         d="m 1282.89,806.207 c 0,-130.273 -35.31,-217.105 -88.4,-274.527 13.42,-17.219 28.67,-33 45.49,-47.032 56.23,70.59 93.54,176.559 93.54,334.672 0,48.422 -6.45,96.754 -18.87,143.039 -18.34,-4.742 -36.76,-10.554 -54.86,-17.441 14.8,-42.52 23.1,-88.848 23.1,-138.711"
         style="fill:#f48412;fill-opacity:1;fill-rule:nonzero;stroke:none"
         id="path18" /><path
         d="m 1373.75,819.32 c 0,-169.109 -41.23,-282.269 -100.96,-358.05 16.82,-10.161 35.06,-18.418 54.77,-24.469 55.27,88.39 90.58,215.336 90.58,395.574 0,25.445 -2.09,80.484 -14.51,145.449 -15.66,-1.336 -32.59,-3.617 -50.45,-6.883 13.5,-49.586 20.57,-100.957 20.57,-151.621"
         style="fill:#f48412;fill-opacity:1;fill-rule:nonzero;stroke:none"
         id="path20" /><path
         d="m 864.656,1201.7 c 141.204,0 257.764,-53.65 331.734,-143.17 15.64,21.02 28.34,43.47 38.92,65.77 -67.15,84.11 -169.9,140.45 -312.04,140.45 -74.711,0 -213.137,-18.02 -335.161,-64.3 2.102,-14.84 6.973,-29.47 14.403,-43.82 86.558,31.21 183.988,45.07 262.144,45.07"
         style="fill:#edac09;fill-opacity:1;fill-rule:nonzero;stroke:none"
         id="path22" /><path
         d="m 1272.97,1309.55 c -9.84,127.88 -77.27,338.25 -312.325,338.25 -181.743,0 -291.29,-171.56 -341.461,-301.67 138.343,43.37 280.445,60.76 363.023,60.76 123.223,0 218.343,-37.69 290.763,-97.34"
         style="fill:#edac09;fill-opacity:1;fill-rule:nonzero;stroke:none"
         id="path24" /><path
         d="m 661.484,1085.09 c 42.832,9.84 91.344,15.12 144.731,15.12 79.461,0 230.485,-14.05 318.945,-110.265 18.63,12.335 35.31,26.825 49.98,42.875 -68.01,85.45 -177.327,136.95 -310.484,136.95 -73.062,0 -164.187,-12.33 -245.07,-40.06 11.582,-15.51 25.668,-30.44 41.898,-44.62"
         style="fill:#edac09;fill-opacity:1;fill-rule:nonzero;stroke:none"
         id="path26" /><path
         d="m 1099.67,975.324 c -82.59,84.906 -220.44,97.606 -293.455,97.606 -42.61,0 -81.641,-3.62 -117.004,-10.11 90.129,-66.48 219.441,-112.004 303.191,-112.004 40.958,0 76.508,9.258 107.268,24.508"
         style="fill:#edac09;fill-opacity:1;fill-rule:nonzero;stroke:none"
         id="path28" /><path
         d="m 923.27,1304.99 c 146.53,0 254.91,-56.78 328.78,-141.11 12.15,33.52 18.77,64.02 21.19,85.67 -64.39,65.27 -156.93,111.55 -291.033,111.55 -82.773,0 -237.914,-19.99 -381.402,-69.43 -5.231,-17.93 -8.903,-33.72 -11.219,-47.13 118.484,42.74 248.555,60.45 333.684,60.45"
         style="fill:#edac09;fill-opacity:1;fill-rule:nonzero;stroke:none"
         id="path30" /><path
         d="m 310.582,950.238 c 0,106.192 67.781,183.812 160.871,239.172 -13.586,8.98 -27.996,16.23 -42.652,21.28 -87.594,-57.05 -148.711,-132.75 -148.711,-231.073 0,-87.367 32.273,-199.972 90.402,-310.441 9.703,0.801 18.957,2.59 27.633,5.441 -55.891,97.938 -87.543,198.18 -87.543,275.621"
         style="fill:#b9d110;fill-opacity:1;fill-rule:nonzero;stroke:none"
         id="path32" /><path
         d="m 386.5,920.863 c 0,91.877 59.293,157.657 141.199,202.497 -6.836,14.5 -14.664,27.55 -24.054,38.24 -87.817,-48.7 -152.829,-117.11 -152.829,-211.362 0,-72.476 29.512,-166.297 81.739,-257.906 8.578,6.316 16.629,13.32 23.965,21.551 -44.758,73.742 -70.02,148.68 -70.02,206.98"
         style="fill:#b9d110;fill-opacity:1;fill-rule:nonzero;stroke:none"
         id="path34" /><path
         d="m 367.633,1223.25 c -11.715,1.07 -22.809,1.52 -32.692,1.52 C 228.352,1224.77 0,1136.73 0,974.34 0,800.223 193.516,692.652 319.516,671.871 c -54.903,110.207 -85.219,220.734 -85.219,307.746 0,101.903 53.57,181.853 133.336,243.633"
         style="fill:#b9d110;fill-opacity:1;fill-rule:nonzero;stroke:none"
         id="path36" /><path
         d="m 458.844,891.48 c 0,61.086 31.926,111.61 88.351,147.73 -1.254,20.35 -4.07,38.64 -8.672,54.82 C 468.23,1054.5 418.43,998.078 418.43,920.863 c 0,-51.199 20.652,-116.121 57.992,-180.965 7.285,11.27 13.676,23.536 19.629,36.231 -23.883,41.672 -37.207,82.266 -37.207,115.351"
         style="fill:#b9d110;fill-opacity:1;fill-rule:nonzero;stroke:none"
         id="path38" /><path
         d="m 486.211,891.48 c 0,-24.5 8.223,-53.613 22.934,-83.964 27.765,75.07 37.246,160.027 39.078,199.324 -39.793,-30.129 -62.012,-69.254 -62.012,-115.36"
         style="fill:#b9d110;fill-opacity:1;fill-rule:nonzero;stroke:none"
         id="path40" /><path
         d="m 893.895,540.941 c -126.082,0 -233.446,55.34 -310.028,126.184 -14.273,-5.742 -28.262,-12.031 -42.082,-18.887 88.086,-102.957 217.793,-187.156 372.414,-187.156 74.707,0 136.821,13.277 186.821,39.168 -10.02,27.238 -23.36,51.02 -39.36,71.59 -45.12,-20 -100.605,-30.899 -167.765,-30.899"
         style="fill:#21b5b0;fill-opacity:1;fill-rule:nonzero;stroke:none"
         id="path42" /><path
         d="M 394.465,544.832 C 340.625,491.129 305.746,429.551 305.746,369.109 305.746,133.012 673.336,0 815.691,0 984.309,0 1063.26,106.898 1097.42,220.262 1046.41,207.52 996.836,203.27 953.77,203.27 c -235.368,0 -431.52,156.128 -559.305,341.562"
         style="fill:#21b5b0;fill-opacity:1;fill-rule:nonzero;stroke:none"
         id="path44" /><path
         d="m 758.469,704.313 c -47.406,0 -97.61,-9.961 -146.793,-26.825 71.179,-61.797 168.469,-109.269 282.219,-109.269 59.699,0 108.755,9.019 148.995,25.402 -89.081,92.5 -229.566,110.692 -284.421,110.692"
         style="fill:#21b5b0;fill-opacity:1;fill-rule:nonzero;stroke:none"
         id="path46" /><path
         d="m 914.199,429.16 c -166.687,0 -306.234,92.371 -400.051,204.449 -10.675,-5.98 -21.328,-12 -31.566,-18.64 103.648,-140.93 261.797,-259.18 451.559,-259.18 61.347,0 126.579,9.563 186.269,36.313 -0.49,28.25 -3.98,53.859 -9.75,77.296 C 1049.32,439.262 979.395,429.16 914.199,429.16"
         style="fill:#21b5b0;fill-opacity:1;fill-rule:nonzero;stroke:none"
         id="path48" /><path
         d="m 934.141,315.539 c -203.262,0 -372.586,126.762 -483.344,277.621 -8.18,-6.078 -15.738,-12.469 -23.426,-18.871 119.559,-176.168 304.399,-325.23 526.399,-325.23 51.02,0 104.32,6.121 155.92,21.742 5.17,26.89 8.4,53.179 9.88,77.781 -64.71,-25.492 -131.152,-33.043 -185.429,-33.043"
         style="fill:#21b5b0;fill-opacity:1;fill-rule:nonzero;stroke:none"
         id="path50" /></g></g></svg>
