<?xml version="1.0" encoding="UTF-8"?>
<!DOCTYPE svg PUBLIC "-//W3C//DTD SVG 1.1//EN" "http://www.w3.org/Graphics/SVG/1.1/DTD/svg11.dtd">
<svg xmlns="http://www.w3.org/2000/svg" version="1.1" width="1000px" height="1000px" style="shape-rendering:geometricPrecision; text-rendering:geometricPrecision; image-rendering:optimizeQuality; fill-rule:evenodd; clip-rule:evenodd" xmlns:xlink="http://www.w3.org/1999/xlink">
<g><path style="opacity:0.131" fill="#fefefe" d="M 258.5,127.5 C 258.5,128.167 258.5,128.833 258.5,129.5C 257.5,264.999 257.167,400.666 257.5,536.5C 256.833,468.501 256.5,400.334 256.5,332C 256.5,263.497 257.167,195.33 258.5,127.5 Z"/></g>
<g><path style="opacity:0.086" fill="#becace" d="M 258.5,127.5 C 419.167,127.5 579.833,127.5 740.5,127.5C 740.5,128.167 740.5,128.833 740.5,129.5C 579.833,129.5 419.167,129.5 258.5,129.5C 258.5,128.833 258.5,128.167 258.5,127.5 Z"/></g>
<g><path style="opacity:0.092" fill="#fefefe" d="M 740.5,127.5 C 741.833,194.33 742.5,261.497 742.5,329C 742.5,396.334 742.167,463.501 741.5,530.5C 741.833,396.666 741.5,262.999 740.5,129.5C 740.5,128.833 740.5,128.167 740.5,127.5 Z"/></g>
<g><path style="opacity:0.8" fill="#c2cbd3" d="M 258.5,129.5 C 258.333,263.834 258.5,398.167 259,532.5C 259.799,538.485 260.465,544.485 261,550.5C 262.513,556.85 264.013,563.183 265.5,569.5C 264.313,567.928 263.313,566.261 262.5,564.5C 259.36,555.553 257.694,546.219 257.5,536.5C 257.167,400.666 257.5,264.999 258.5,129.5 Z"/></g>
<g><path style="opacity:1" fill="#143759" d="M 258.5,129.5 C 419.167,129.5 579.833,129.5 740.5,129.5C 740.667,262.5 740.5,395.5 740,528.5C 738.589,550.31 733.755,571.31 725.5,591.5C 717.278,612.612 706.444,632.279 693,650.5C 657.582,699.926 613.082,738.759 559.5,767C 548.345,771.386 537.011,775.386 525.5,779C 514.701,782.19 503.701,783.523 492.5,783C 487.191,781.871 481.857,780.871 476.5,780C 449.834,772.505 425.168,760.838 402.5,745C 391.937,736.924 381.27,729.091 370.5,721.5C 356.2,708.033 342.367,694.033 329,679.5C 309.257,656.075 292.257,630.742 278,603.5C 275.153,596.057 272.32,588.723 269.5,581.5C 268.739,577.216 267.405,573.216 265.5,569.5C 264.013,563.183 262.513,556.85 261,550.5C 260.465,544.485 259.799,538.485 259,532.5C 258.5,398.167 258.333,263.834 258.5,129.5 Z"/></g>
<g><path style="opacity:1" fill="#a7b4c1" d="M 485.5,159.5 C 473.495,159.667 461.495,159.5 449.5,159C 447.782,158.654 446.115,158.154 444.5,157.5C 443.782,162.476 442.449,167.142 440.5,171.5C 441.275,166.516 441.942,161.516 442.5,156.5C 456.922,158.012 471.255,159.012 485.5,159.5 Z"/></g>
<g><path style="opacity:1" fill="#fcfcfd" d="M 558.5,176.5 C 558.716,182.755 559.716,188.755 561.5,194.5C 562.521,198.98 563.187,203.647 563.5,208.5C 563.28,213.1 563.946,217.433 565.5,221.5C 565.958,224.394 565.291,226.894 563.5,229C 548.53,227.856 533.53,226.856 518.5,226C 511.362,227.729 505.362,231.229 500.5,236.5C 499.503,217.674 499.17,198.674 499.5,179.5C 499.5,176.167 499.5,172.833 499.5,169.5C 502.094,164.406 506.094,160.906 511.5,159C 519.509,158.442 527.509,158.608 535.5,159.5C 541.6,159.142 547.6,158.142 553.5,156.5C 555.461,157.079 556.461,158.413 556.5,160.5C 557.635,165.779 558.302,171.112 558.5,176.5 Z"/></g>
<g><path style="opacity:1" fill="#fdfefe" d="M 485.5,159.5 C 487.292,159.366 488.958,159.699 490.5,160.5C 490.563,182.951 485.896,204.285 476.5,224.5C 471.489,224.334 466.489,224.501 461.5,225C 460.263,225.232 459.263,225.732 458.5,226.5C 455.273,226.676 452.273,227.343 449.5,228.5C 444.489,228.666 439.489,228.499 434.5,228C 433.62,226.644 433.286,225.144 433.5,223.5C 433.5,221.833 433.5,220.167 433.5,218.5C 435.561,212.121 436.561,205.454 436.5,198.5C 438.054,194.433 438.72,190.1 438.5,185.5C 438.35,180.699 439.016,176.033 440.5,171.5C 442.449,167.142 443.782,162.476 444.5,157.5C 446.115,158.154 447.782,158.654 449.5,159C 461.495,159.5 473.495,159.667 485.5,159.5 Z"/></g>
<g><path style="opacity:1" fill="#acd9f2" d="M 490.5,160.5 C 494.194,162.861 497.194,165.861 499.5,169.5C 499.5,172.833 499.5,176.167 499.5,179.5C 498.326,180.514 497.66,181.847 497.5,183.5C 492.197,199.007 490.03,215.007 491,231.5C 486.795,228.097 481.962,226.264 476.5,226C 470.472,225.359 464.472,225.526 458.5,226.5C 459.263,225.732 460.263,225.232 461.5,225C 466.489,224.501 471.489,224.334 476.5,224.5C 485.896,204.285 490.563,182.951 490.5,160.5 Z"/></g>
<g><path style="opacity:1" fill="#4e6a84" d="M 499.5,179.5 C 499.17,198.674 499.503,217.674 500.5,236.5C 500.44,237.043 500.107,237.376 499.5,237.5C 498.833,219.338 498.167,201.338 497.5,183.5C 497.66,181.847 498.326,180.514 499.5,179.5 Z"/></g>
<g><path style="opacity:1" fill="#9eadbb" d="M 558.5,176.5 C 560.284,182.245 561.284,188.245 561.5,194.5C 559.716,188.755 558.716,182.755 558.5,176.5 Z"/></g>
<g><path style="opacity:1" fill="#8b9cad" d="M 438.5,185.5 C 438.72,190.1 438.054,194.433 436.5,198.5C 436.28,193.9 436.946,189.567 438.5,185.5 Z"/></g>
<g><path style="opacity:1" fill="#dd9f24" d="M 388.5,236.5 C 386.345,236.372 384.345,236.872 382.5,238C 379.268,241.062 376.268,244.229 373.5,247.5C 374.007,242.879 373.174,238.546 371,234.5C 371.762,244.143 367.929,251.31 359.5,256C 348.756,261.47 337.423,265.137 325.5,267C 320.328,270.085 315.328,273.419 310.5,277C 305.22,277.909 300.053,279.409 295,281.5C 294.5,281.167 294,280.833 293.5,280.5C 301.743,274.762 309.243,268.095 316,260.5C 327.643,242.522 342.81,228.355 361.5,218C 363.995,213.352 366.995,209.019 370.5,205C 378.38,200.087 386.047,200.421 393.5,206C 394.627,207.753 395.627,209.587 396.5,211.5C 399.016,212.726 401.349,214.226 403.5,216C 390.354,216.776 385.354,223.609 388.5,236.5 Z"/></g>
<g><path style="opacity:1" fill="#7f91a4" d="M 436.5,198.5 C 436.561,205.454 435.561,212.121 433.5,218.5C 433.771,211.593 434.771,204.926 436.5,198.5 Z"/></g>
<g><path style="opacity:1" fill="#273e55" d="M 388.5,210.5 C 391.91,210.384 393.244,212.05 392.5,215.5C 388.065,216.078 386.732,214.411 388.5,210.5 Z"/></g>
<g><path style="opacity:1" fill="#788b9f" d="M 563.5,208.5 C 564.895,212.591 565.562,216.924 565.5,221.5C 563.946,217.433 563.28,213.1 563.5,208.5 Z"/></g>
<g><path style="opacity:1" fill="#8d9eaf" d="M 433.5,223.5 C 433.286,225.144 433.62,226.644 434.5,228C 439.489,228.499 444.489,228.666 449.5,228.5C 444.35,229.651 439.016,229.817 433.5,229C 432.193,227.057 432.193,225.223 433.5,223.5 Z"/></g>
<g><path style="opacity:1" fill="#a7d8f2" d="M 518.5,236.5 C 530.777,234.957 543.11,234.29 555.5,234.5C 558.428,234.852 561.262,235.518 564,236.5C 562.473,241.292 561.64,246.292 561.5,251.5C 540.05,246.109 519.217,247.776 499,256.5C 479.794,248.351 459.961,246.351 439.5,250.5C 437.665,247.031 435.998,243.365 434.5,239.5C 433.766,238.292 433.433,236.959 433.5,235.5C 450.925,232.509 468.258,233.009 485.5,237C 490.287,238.893 494.953,241.06 499.5,243.5C 505.314,239.784 511.647,237.451 518.5,236.5 Z"/></g>
<g><path style="opacity:1" fill="#6791af" d="M 555.5,234.5 C 543.11,234.29 530.777,234.957 518.5,236.5C 522.591,235.105 526.924,234.272 531.5,234C 539.677,233.177 547.677,233.344 555.5,234.5 Z"/></g>
<g><path style="opacity:1" fill="#df3923" d="M 388.5,236.5 C 388.52,250.797 381.853,260.464 368.5,265.5C 367.584,265.457 366.917,265.124 366.5,264.5C 367.832,260.838 369.165,257.172 370.5,253.5C 371.508,251.456 372.508,249.456 373.5,247.5C 376.268,244.229 379.268,241.062 382.5,238C 384.345,236.872 386.345,236.372 388.5,236.5 Z"/></g>
<g><path style="opacity:1" fill="#5e89a7" d="M 434.5,239.5 C 435.998,243.365 437.665,247.031 439.5,250.5C 438.791,251.404 437.791,251.737 436.5,251.5C 436.042,247.462 435.376,243.462 434.5,239.5 Z"/></g>
<g><path style="opacity:1" fill="#cf9729" d="M 370.5,253.5 C 369.165,257.172 367.832,260.838 366.5,264.5C 361.008,264.003 358.842,266.336 360,271.5C 362.372,273.703 364.539,276.037 366.5,278.5C 366.573,280.027 365.906,281.027 364.5,281.5C 360.876,279.049 357.376,276.383 354,273.5C 353.506,271.866 353.34,270.199 353.5,268.5C 350.603,268.875 347.937,268.375 345.5,267C 355.01,264.58 363.343,260.08 370.5,253.5 Z"/></g>
<g><path style="opacity:1" fill="#ecbc29" d="M 506.5,271.5 C 501.833,272.833 497.167,272.833 492.5,271.5C 494.077,267.346 496.41,263.679 499.5,260.5C 502.094,264.026 504.427,267.692 506.5,271.5 Z"/></g>
<g><path style="opacity:1" fill="#8d823e" d="M 492.5,271.5 C 497.167,272.833 501.833,272.833 506.5,271.5C 507.043,271.56 507.376,271.893 507.5,272.5C 502.167,273.833 496.833,273.833 491.5,272.5C 491.624,271.893 491.957,271.56 492.5,271.5 Z"/></g>
<g><path style="opacity:1" fill="#fbcc29" d="M 491.5,277.5 C 494.167,277.5 496.833,277.5 499.5,277.5C 499.5,283.5 499.5,289.5 499.5,295.5C 496.833,295.5 494.167,295.5 491.5,295.5C 491.5,289.5 491.5,283.5 491.5,277.5 Z"/></g>
<g><path style="opacity:1" fill="#d39c2a" d="M 491.5,277.5 C 496.833,276.167 502.167,276.167 507.5,277.5C 506.167,277.5 504.833,277.5 503.5,277.5C 503.5,283.5 503.5,289.5 503.5,295.5C 502.5,295.5 501.5,295.5 500.5,295.5C 500.167,295.5 499.833,295.5 499.5,295.5C 499.5,289.5 499.5,283.5 499.5,277.5C 496.833,277.5 494.167,277.5 491.5,277.5 Z"/></g>
<g><path style="opacity:1" fill="#f4c82a" d="M 507.5,277.5 C 507.5,283.5 507.5,289.5 507.5,295.5C 506.167,295.5 504.833,295.5 503.5,295.5C 503.5,289.5 503.5,283.5 503.5,277.5C 504.833,277.5 506.167,277.5 507.5,277.5 Z"/></g>
<g><path style="opacity:1" fill="#84ba25" d="M 366.5,278.5 C 367.552,278.351 368.552,278.517 369.5,279C 375.934,287.699 380.934,297.199 384.5,307.5C 388.788,302.709 393.788,298.875 399.5,296C 402.146,295.503 404.813,295.336 407.5,295.5C 408.159,298.455 408.492,301.455 408.5,304.5C 408.497,309.527 408.164,314.527 407.5,319.5C 407.586,320.496 407.252,321.329 406.5,322C 407,322.167 407.5,322.333 408,322.5C 409.879,320.987 412.046,320.321 414.5,320.5C 419.845,320.313 425.178,319.98 430.5,319.5C 430.5,323.167 430.5,326.833 430.5,330.5C 429.048,335.403 427.048,340.07 424.5,344.5C 423.957,344.56 423.624,344.893 423.5,345.5C 430.831,346.314 438.165,346.981 445.5,347.5C 446.5,347.5 447.5,347.5 448.5,347.5C 446.5,358.303 440.834,366.803 431.5,373C 436.899,374.08 442.232,375.413 447.5,377C 450.21,378.015 452.543,379.515 454.5,381.5C 452.117,386.388 448.783,390.555 444.5,394C 440.53,396.312 436.863,398.978 433.5,402C 439.719,404.609 445.052,408.442 449.5,413.5C 442.991,420.925 434.991,426.091 425.5,429C 430.688,432.688 435.022,437.188 438.5,442.5C 435.064,445.882 431.064,448.215 426.5,449.5C 418.591,451.094 410.591,451.761 402.5,451.5C 393.178,451.502 384.178,449.835 375.5,446.5C 374.029,466.704 375.362,486.704 379.5,506.5C 379.5,507.5 379.5,508.5 379.5,509.5C 371.472,509.831 363.472,509.498 355.5,508.5C 356.407,505.579 356.74,502.579 356.5,499.5C 358.115,487.895 359.115,476.228 359.5,464.5C 360.489,459.025 360.822,453.358 360.5,447.5C 358.585,447.216 356.919,447.549 355.5,448.5C 339.507,452.092 323.507,452.258 307.5,449C 303.457,447.553 299.79,445.553 296.5,443C 299.047,437.117 303.047,432.45 308.5,429C 299.017,425.997 291.017,420.83 284.5,413.5C 289.868,408.146 296.201,404.313 303.5,402C 296.517,398.253 290.351,393.419 285,387.5C 280.884,382.232 282.051,378.732 288.5,377C 293.677,375.039 299.01,373.706 304.5,373C 297.873,367.38 292.373,360.88 288,353.5C 287.505,351.527 287.338,349.527 287.5,347.5C 289.806,347.007 292.139,346.674 294.5,346.5C 300.868,346.83 307.202,346.496 313.5,345.5C 313.145,344.478 312.478,343.811 311.5,343.5C 308.491,337.139 306.491,330.472 305.5,323.5C 305.5,322.167 305.5,320.833 305.5,319.5C 312.21,319.776 318.877,320.442 325.5,321.5C 326.858,322.626 328.192,322.626 329.5,321.5C 327.038,312.935 327.038,304.435 329.5,296C 334.28,294.97 338.613,295.97 342.5,299C 345.369,302.038 348.369,304.871 351.5,307.5C 352.302,308.885 352.969,308.718 353.5,307C 355.286,302.941 356.619,298.774 357.5,294.5C 359.403,289.932 361.736,285.598 364.5,281.5C 365.906,281.027 366.573,280.027 366.5,278.5 Z"/></g>
<g><path style="opacity:1" fill="#c4a934" d="M 597.5,281.5 C 620.33,280.337 643.33,280.17 666.5,281C 667.737,281.232 668.737,281.732 669.5,282.5C 645.522,281.55 621.522,281.217 597.5,281.5 Z"/></g>
<g><path style="opacity:1" fill="#facc29" d="M 597.5,281.5 C 621.522,281.217 645.522,281.55 669.5,282.5C 675.028,284.033 678.028,287.7 678.5,293.5C 675.499,305.168 671.499,316.502 666.5,327.5C 677.058,334.406 683.724,344.073 686.5,356.5C 686.723,360.162 687.723,363.495 689.5,366.5C 690.423,370.064 690.756,373.731 690.5,377.5C 690.779,386.719 691.779,395.719 693.5,404.5C 695.559,418.661 697.059,432.994 698,447.5C 694.776,443.59 690.609,441.923 685.5,442.5C 654.669,441.336 623.669,441.169 592.5,442C 591.944,442.383 591.611,442.883 591.5,443.5C 587.246,446.924 583.413,450.924 580,455.5C 578.86,458.528 579.694,460.695 582.5,462C 587.155,462.499 591.821,462.666 596.5,462.5C 603.982,463.492 611.648,463.825 619.5,463.5C 619.768,461.901 619.434,460.568 618.5,459.5C 618.232,456.881 618.565,454.381 619.5,452C 623.343,449.138 627.676,447.971 632.5,448.5C 629.755,458.561 633.422,463.395 643.5,463C 646.386,461.615 648.386,459.449 649.5,456.5C 650.404,457.209 650.737,458.209 650.5,459.5C 650.297,461.044 649.63,462.378 648.5,463.5C 657.506,464.281 666.506,465.114 675.5,466C 665.183,466.911 654.85,467.578 644.5,468C 638.983,470.865 633.317,471.198 627.5,469C 607.5,468.667 587.5,468.333 567.5,468C 565.68,467.8 564.347,466.966 563.5,465.5C 564.127,460.859 564.46,456.193 564.5,451.5C 566.112,432.274 568.445,413.274 571.5,394.5C 572.972,390.081 573.638,385.414 573.5,380.5C 573.5,380.167 573.5,379.833 573.5,379.5C 574.972,375.081 575.638,370.414 575.5,365.5C 577.251,348.65 584.917,335.483 598.5,326C 594.097,315.456 590.097,304.789 586.5,294C 587.199,287.139 590.866,282.972 597.5,281.5 Z"/></g>
<g><path style="opacity:1" fill="#153758" d="M 601.5,293.5 C 621.836,293.333 642.169,293.5 662.5,294C 663.554,295.388 663.72,296.888 663,298.5C 659.147,308.198 655.314,317.865 651.5,327.5C 638.483,327.832 625.483,327.499 612.5,326.5C 609.345,316.862 605.511,307.529 601,298.5C 600.36,296.735 600.527,295.068 601.5,293.5 Z"/></g>
<g><path style="opacity:1" fill="#fbfcfb" d="M 491.5,295.5 C 494.167,295.5 496.833,295.5 499.5,295.5C 499.833,295.5 500.167,295.5 500.5,295.5C 500.5,302.833 500.5,310.167 500.5,317.5C 495.167,317.5 489.833,317.5 484.5,317.5C 484.5,310.167 484.5,302.833 484.5,295.5C 486.833,295.5 489.167,295.5 491.5,295.5 Z"/></g>
<g><path style="opacity:1" fill="#f0f4f7" d="M 508.5,295.5 C 510.167,295.5 511.833,295.5 513.5,295.5C 513.5,302.833 513.5,310.167 513.5,317.5C 511.833,317.5 510.167,317.5 508.5,317.5C 508.5,310.167 508.5,302.833 508.5,295.5 Z"/></g>
<g><path style="opacity:1" fill="#aedef6" d="M 500.5,295.5 C 501.5,295.5 502.5,295.5 503.5,295.5C 504.833,295.5 506.167,295.5 507.5,295.5C 507.833,295.5 508.167,295.5 508.5,295.5C 508.5,302.833 508.5,310.167 508.5,317.5C 505.833,317.5 503.167,317.5 500.5,317.5C 500.5,310.167 500.5,302.833 500.5,295.5 Z"/></g>
<g><path style="opacity:1" fill="#58853c" d="M 357.5,294.5 C 356.619,298.774 355.286,302.941 353.5,307C 352.969,308.718 352.302,308.885 351.5,307.5C 353.113,302.997 355.113,298.664 357.5,294.5 Z"/></g>
<g><path style="opacity:1" fill="#2f544d" d="M 408.5,304.5 C 409.647,308.646 409.814,312.98 409,317.5C 408.722,318.416 408.222,319.082 407.5,319.5C 408.164,314.527 408.497,309.527 408.5,304.5 Z"/></g>
<g><path style="opacity:1" fill="#078f3b" d="M 368.5,313.5 C 374.322,314.981 378.322,318.647 380.5,324.5C 383.853,319.122 388.519,315.788 394.5,314.5C 395.174,322.576 394.174,330.409 391.5,338C 391.833,338.5 392.167,339 392.5,339.5C 398.754,336.082 405.421,334.082 412.5,333.5C 410.056,341.719 407.056,349.719 403.5,357.5C 410.543,357.28 417.543,357.614 424.5,358.5C 421.311,367.199 415.978,374.366 408.5,380C 416.002,380.956 423.002,383.289 429.5,387C 423.758,394.032 416.758,399.365 408.5,403C 415.924,405.432 421.924,409.766 426.5,416C 419.993,421.253 412.66,424.92 404.5,427C 410.029,429.695 414.029,433.862 416.5,439.5C 415.975,440.192 415.308,440.692 414.5,441C 399.75,442.517 385.417,441.017 371.5,436.5C 371.167,436.167 370.833,435.833 370.5,435.5C 377.505,433.247 383.672,429.581 389,424.5C 389.483,423.552 389.649,422.552 389.5,421.5C 384.614,420.123 379.614,419.289 374.5,419C 382.641,414.692 388.974,408.526 393.5,400.5C 392.975,399.808 392.308,399.308 391.5,399C 386.798,398.828 382.132,398.328 377.5,397.5C 384.853,391.084 389.186,383.084 390.5,373.5C 385.291,374.19 380.291,375.357 375.5,377C 382.33,369.504 385.996,360.671 386.5,350.5C 381.317,350.095 376.65,351.429 372.5,354.5C 371.644,351.861 371.81,349.194 373,346.5C 373.667,340.833 373.667,335.167 373,329.5C 369.638,331.35 366.638,333.683 364,336.5C 362.804,328.286 364.304,320.62 368.5,313.5 Z"/></g>
<g><path style="opacity:1" fill="#58863b" d="M 325.5,321.5 C 318.877,320.442 312.21,319.776 305.5,319.5C 305.5,320.833 305.5,322.167 305.5,323.5C 304.549,322.081 304.216,320.415 304.5,318.5C 311.862,317.929 318.862,318.929 325.5,321.5 Z"/></g>
<g><path style="opacity:1" fill="#bfa943" d="M 484.5,317.5 C 489.833,317.5 495.167,317.5 500.5,317.5C 503.167,317.5 505.833,317.5 508.5,317.5C 510.167,317.5 511.833,317.5 513.5,317.5C 516.167,317.5 518.833,317.5 521.5,317.5C 521.829,332.01 521.496,346.343 520.5,360.5C 520.5,346.5 520.5,332.5 520.5,318.5C 518.5,318.5 516.5,318.5 514.5,318.5C 510.5,318.5 506.5,318.5 502.5,318.5C 494.5,318.5 486.5,318.5 478.5,318.5C 478.171,332.677 478.504,346.677 479.5,360.5C 479.5,360.833 479.5,361.167 479.5,361.5C 477.517,347.205 476.85,332.538 477.5,317.5C 479.833,317.5 482.167,317.5 484.5,317.5 Z"/></g>
<g><path style="opacity:1" fill="#fecf27" d="M 502.5,318.5 C 502.5,332.5 502.5,346.5 502.5,360.5C 494.833,360.5 487.167,360.5 479.5,360.5C 478.504,346.677 478.171,332.677 478.5,318.5C 486.5,318.5 494.5,318.5 502.5,318.5 Z"/></g>
<g><path style="opacity:1" fill="#e2a323" d="M 502.5,318.5 C 506.5,318.5 510.5,318.5 514.5,318.5C 514.5,332.5 514.5,346.5 514.5,360.5C 516.167,360.5 517.833,360.5 519.5,360.5C 516.544,362.742 514.878,365.742 514.5,369.5C 504.5,368.167 494.5,368.167 484.5,369.5C 484.5,365.825 482.833,363.159 479.5,361.5C 479.5,361.167 479.5,360.833 479.5,360.5C 487.167,360.5 494.833,360.5 502.5,360.5C 502.5,346.5 502.5,332.5 502.5,318.5 Z"/></g>
<g><path style="opacity:1" fill="#fecf27" d="M 514.5,318.5 C 516.5,318.5 518.5,318.5 520.5,318.5C 520.5,332.5 520.5,346.5 520.5,360.5C 520.167,360.5 519.833,360.5 519.5,360.5C 517.833,360.5 516.167,360.5 514.5,360.5C 514.5,346.5 514.5,332.5 514.5,318.5 Z"/></g>
<g><path style="opacity:1" fill="#639336" d="M 430.5,330.5 C 430.5,326.833 430.5,323.167 430.5,319.5C 425.178,319.98 419.845,320.313 414.5,320.5C 415.609,319.71 416.942,319.21 418.5,319C 422.821,318.501 427.154,318.334 431.5,318.5C 431.817,322.702 431.483,326.702 430.5,330.5 Z"/></g>
<g><path style="opacity:1" fill="#e3a222" d="M 605.5,334.5 C 617.505,334.333 629.505,334.5 641.5,335C 631.522,337.643 624.689,343.809 621,353.5C 619.72,380.152 618.887,406.819 618.5,433.5C 610.5,433.5 602.5,433.5 594.5,433.5C 594.955,403.823 595.788,374.157 597,344.5C 598.185,342.623 599.185,340.623 600,338.5C 602.015,337.303 603.849,335.97 605.5,334.5 Z"/></g>
<g><path style="opacity:1" fill="#426c44" d="M 311.5,343.5 C 312.478,343.811 313.145,344.478 313.5,345.5C 307.202,346.496 300.868,346.83 294.5,346.5C 300.406,346.146 306.073,345.146 311.5,343.5 Z"/></g>
<g><path style="opacity:1" fill="#3f6846" d="M 424.5,344.5 C 430.653,345.328 436.987,345.828 443.5,346C 444.416,346.278 445.082,346.778 445.5,347.5C 438.165,346.981 430.831,346.314 423.5,345.5C 423.624,344.893 423.957,344.56 424.5,344.5 Z"/></g>
<g><path style="opacity:1" fill="#898342" d="M 686.5,356.5 C 688.277,359.505 689.277,362.838 689.5,366.5C 687.723,363.495 686.723,360.162 686.5,356.5 Z"/></g>
<g><path style="opacity:1" fill="#f9cb2c" d="M 514.5,369.5 C 526.918,373.665 529.752,381.332 523,392.5C 520.397,395.278 517.23,396.944 513.5,397.5C 505.833,397.5 498.167,397.5 490.5,397.5C 488.5,397.5 486.5,397.5 484.5,397.5C 473.846,393.745 470.346,386.412 474,375.5C 476.754,372.044 480.254,370.044 484.5,369.5C 494.5,368.167 504.5,368.167 514.5,369.5 Z"/></g>
<g><path style="opacity:1" fill="#ad9a3c" d="M 575.5,365.5 C 575.638,370.414 574.972,375.081 573.5,379.5C 573.362,374.586 574.028,369.919 575.5,365.5 Z"/></g>
<g><path style="opacity:1" fill="#e4a422" d="M 516.5,378.5 C 517.496,378.414 518.329,378.748 519,379.5C 520.151,383.829 519.318,387.662 516.5,391C 508.605,392.601 500.605,392.934 492.5,392C 501.633,389.273 509.633,384.773 516.5,378.5 Z"/></g>
<g><path style="opacity:1" fill="#837f44" d="M 690.5,377.5 C 692.385,386.263 693.385,395.263 693.5,404.5C 691.779,395.719 690.779,386.719 690.5,377.5 Z"/></g>
<g><path style="opacity:1" fill="#a4943d" d="M 573.5,380.5 C 573.638,385.414 572.972,390.081 571.5,394.5C 571.362,389.586 572.028,384.919 573.5,380.5 Z"/></g>
<g><path style="opacity:0.604" fill="#c2cbd3" d="M 740.5,129.5 C 741.5,262.999 741.833,396.666 741.5,530.5C 740.898,551.566 736.232,571.566 727.5,590.5C 726.833,590.833 726.167,591.167 725.5,591.5C 733.755,571.31 738.589,550.31 740,528.5C 740.5,395.5 740.667,262.5 740.5,129.5 Z"/></g>
<g><path style="opacity:1" fill="#6f858b" d="M 490.5,397.5 C 498.167,397.5 505.833,397.5 513.5,397.5C 506.833,398.167 500.167,398.833 493.5,399.5C 491.821,399.715 490.821,399.048 490.5,397.5 Z"/></g>
<g><path style="opacity:1" fill="#fafbfc" d="M 484.5,397.5 C 486.5,397.5 488.5,397.5 490.5,397.5C 490.821,399.048 491.821,399.715 493.5,399.5C 496.331,400.079 498.664,401.412 500.5,403.5C 500.5,422.167 500.5,440.833 500.5,459.5C 495.167,459.5 489.833,459.5 484.5,459.5C 484.5,438.833 484.5,418.167 484.5,397.5 Z"/></g>
<g><path style="opacity:1" fill="#adddf7" d="M 500.5,403.5 C 504.173,405 507.506,407 510.5,409.5C 508.515,425.8 507.848,442.466 508.5,459.5C 505.833,459.5 503.167,459.5 500.5,459.5C 500.5,440.833 500.5,422.167 500.5,403.5 Z"/></g>
<g><path style="opacity:1" fill="#eff4f7" d="M 510.5,409.5 C 511.458,409.953 512.292,410.619 513,411.5C 513.5,427.497 513.667,443.497 513.5,459.5C 511.833,459.5 510.167,459.5 508.5,459.5C 507.848,442.466 508.515,425.8 510.5,409.5 Z"/></g>
<g><path style="opacity:1" fill="#43564f" d="M 685.5,442.5 C 654.123,442.182 622.79,442.515 591.5,443.5C 591.611,442.883 591.944,442.383 592.5,442C 623.669,441.169 654.669,441.336 685.5,442.5 Z"/></g>
<g><path style="opacity:1" fill="#32584c" d="M 426.5,449.5 C 424.123,450.887 421.457,451.721 418.5,452C 412.984,452.817 407.65,452.651 402.5,451.5C 410.591,451.761 418.591,451.094 426.5,449.5 Z"/></g>
<g><path style="opacity:1" fill="#636a48" d="M 650.5,459.5 C 650.737,458.209 650.404,457.209 649.5,456.5C 649.709,455.078 650.209,453.745 651,452.5C 651.796,455.039 651.629,457.372 650.5,459.5 Z"/></g>
<g><path style="opacity:1" fill="#436e44" d="M 355.5,448.5 C 356.919,447.549 358.585,447.216 360.5,447.5C 360.822,453.358 360.489,459.025 359.5,464.5C 359.5,459.167 359.5,453.833 359.5,448.5C 358.167,448.5 356.833,448.5 355.5,448.5 Z"/></g>
<g><path style="opacity:1" fill="#fbcd2a" d="M 484.5,459.5 C 489.833,459.5 495.167,459.5 500.5,459.5C 503.167,459.5 505.833,459.5 508.5,459.5C 510.167,459.5 511.833,459.5 513.5,459.5C 517.887,460.358 521.22,462.691 523.5,466.5C 524.36,470.434 524.693,474.434 524.5,478.5C 522.33,483.337 518.663,486.337 513.5,487.5C 505.833,487.5 498.167,487.5 490.5,487.5C 488.5,487.5 486.5,487.5 484.5,487.5C 474.186,484.765 470.02,478.098 472,467.5C 474.974,462.932 479.141,460.265 484.5,459.5 Z"/></g>
<g><path style="opacity:1" fill="#9a8e3f" d="M 564.5,451.5 C 564.46,456.193 564.127,460.859 563.5,465.5C 562.503,460.787 562.837,456.12 564.5,451.5 Z"/></g>
<g><path style="opacity:1" fill="#4f5a4e" d="M 618.5,459.5 C 619.434,460.568 619.768,461.901 619.5,463.5C 611.648,463.825 603.982,463.492 596.5,462.5C 603.833,462.5 611.167,462.5 618.5,462.5C 618.5,461.5 618.5,460.5 618.5,459.5 Z"/></g>
<g><path style="opacity:1" fill="#e4a522" d="M 515.5,468.5 C 518.766,469.114 520.099,471.114 519.5,474.5C 519.065,477.748 517.398,480.248 514.5,482C 507.167,482.667 499.833,482.667 492.5,482C 498.196,479.538 503.862,476.872 509.5,474C 511.763,472.383 513.763,470.55 515.5,468.5 Z"/></g>
<g><path style="opacity:1" fill="#968b3f" d="M 523.5,466.5 C 524.117,466.611 524.617,466.944 525,467.5C 525.81,471.358 525.643,475.024 524.5,478.5C 524.693,474.434 524.36,470.434 523.5,466.5 Z"/></g>
<g><path style="opacity:1" fill="#76877b" d="M 490.5,487.5 C 498.167,487.5 505.833,487.5 513.5,487.5C 506.833,488.167 500.167,488.833 493.5,489.5C 491.973,489.573 490.973,488.906 490.5,487.5 Z"/></g>
<g><path style="opacity:1" fill="#fbfbfc" d="M 484.5,487.5 C 486.5,487.5 488.5,487.5 490.5,487.5C 490.973,488.906 491.973,489.573 493.5,489.5C 495.915,490.305 498.249,491.305 500.5,492.5C 500.5,511.833 500.5,531.167 500.5,550.5C 495.167,550.5 489.833,550.5 484.5,550.5C 484.5,529.5 484.5,508.5 484.5,487.5 Z"/></g>
<g><path style="opacity:1" fill="#adddf6" d="M 500.5,492.5 C 504.054,493.769 507.054,495.769 509.5,498.5C 508.503,515.659 508.17,532.992 508.5,550.5C 505.833,550.5 503.167,550.5 500.5,550.5C 500.5,531.167 500.5,511.833 500.5,492.5 Z"/></g>
<g><path style="opacity:1" fill="#eff4f6" d="M 509.5,498.5 C 510.794,499.29 511.961,500.29 513,501.5C 513.5,517.83 513.667,534.163 513.5,550.5C 511.833,550.5 510.167,550.5 508.5,550.5C 508.17,532.992 508.503,515.659 509.5,498.5 Z"/></g>
<g><path style="opacity:1" fill="#54823c" d="M 356.5,499.5 C 356.74,502.579 356.407,505.579 355.5,508.5C 363.472,509.498 371.472,509.831 379.5,509.5C 379.5,508.5 379.5,507.5 379.5,506.5C 380.434,507.568 380.768,508.901 380.5,510.5C 371.833,510.5 363.167,510.5 354.5,510.5C 354.43,506.575 355.097,502.909 356.5,499.5 Z"/></g>
<g><path style="opacity:1" fill="#a9daf4" d="M 487.5,691.5 C 478.295,690.592 468.962,689.592 459.5,688.5C 423.514,680.645 392.681,663.645 367,637.5C 364.089,634.01 361.422,630.344 359,626.5C 352.869,613.736 346.369,601.236 339.5,589C 339.412,586.256 340.745,585.09 343.5,585.5C 347.181,586.56 350.847,587.727 354.5,589C 358.689,589.812 362.689,589.645 366.5,588.5C 371.022,587.411 374.689,585.078 377.5,581.5C 380.63,580.428 383.296,578.594 385.5,576C 402.739,578.53 417.239,586.364 429,599.5C 429.464,600.094 429.631,600.761 429.5,601.5C 424.707,597.879 420.04,594.046 415.5,590C 404.912,583.964 393.579,581.964 381.5,584C 377.188,586.97 372.854,589.97 368.5,593C 363.177,593.499 357.844,593.666 352.5,593.5C 352.263,594.791 352.596,595.791 353.5,596.5C 353.301,599.941 353.801,603.274 355,606.5C 363.478,624.619 375.644,639.786 391.5,652C 413.728,664.299 437.395,672.632 462.5,677C 506.827,683.479 548.827,676.479 588.5,656C 611.794,643.222 627.96,624.388 637,599.5C 637.495,597.527 637.662,595.527 637.5,593.5C 636.167,593.5 634.833,593.5 633.5,593.5C 633.389,592.883 633.056,592.383 632.5,592C 630.5,591.333 628.5,591.333 626.5,592C 622.623,596.721 618.289,601.054 613.5,605C 584.673,619.395 554.673,622.395 523.5,614C 501.443,606.204 479.11,599.204 456.5,593C 449.189,591.263 441.855,591.096 434.5,592.5C 434.608,594.783 435.441,596.783 437,598.5C 437.667,603.5 437.667,608.5 437,613.5C 435.539,614.883 434.706,614.549 434.5,612.5C 435.693,612.03 436.36,611.03 436.5,609.5C 435.474,599.282 431.141,590.782 423.5,584C 443.182,584.436 462.515,587.27 481.5,592.5C 482.209,593.404 483.209,593.737 484.5,593.5C 489.813,594.828 495.146,596.162 500.5,597.5C 500.5,592.833 500.5,588.167 500.5,583.5C 503.709,585.265 506.709,587.265 509.5,589.5C 508.518,592.962 508.185,596.629 508.5,600.5C 509.833,600.5 511.167,600.5 512.5,600.5C 512.5,597.5 512.5,594.5 512.5,591.5C 513.482,594.962 513.815,598.629 513.5,602.5C 530.003,601.266 546.503,601.266 563,602.5C 564.167,602.833 565.333,603.167 566.5,603.5C 564.833,606.167 563.167,608.833 561.5,611.5C 581.027,613.244 599.027,608.744 615.5,598C 619.13,594.95 620.297,591.117 619,586.5C 610.518,573.532 604.185,559.532 600,544.5C 598.803,538.871 598.47,533.204 599,527.5C 603.797,531.817 609.297,534.984 615.5,537C 626.717,538.646 637.717,541.146 648.5,544.5C 658.412,539.545 668.745,535.711 679.5,533C 690.989,531.411 701.989,532.911 712.5,537.5C 700.576,542.461 689.576,548.961 679.5,557C 669.599,566.231 660.433,576.064 652,586.5C 653.258,577.661 649.591,572.328 641,570.5C 633.354,572.838 628.688,577.838 627,585.5C 633.769,579.741 639.769,580.408 645,587.5C 645.667,591.167 645.667,594.833 645,598.5C 631.511,631.657 608.678,656.157 576.5,672C 566.957,676.459 557.29,680.625 547.5,684.5C 550.75,690.25 555.416,694.416 561.5,697C 536.288,701.7 511.622,699.867 487.5,691.5 Z"/></g>
<g><path style="opacity:1" fill="#f5fbfe" d="M 670.5,537.5 C 672.199,537.34 673.866,537.506 675.5,538C 661.355,544.312 651.022,554.478 644.5,568.5C 642.893,562.809 643.726,557.475 647,552.5C 653.231,544.812 661.065,539.812 670.5,537.5 Z"/></g>
<g><path style="opacity:1" fill="#f8fcfe" d="M 603.5,537.5 C 604.376,537.369 605.043,537.702 605.5,538.5C 607.479,544.453 609.979,550.119 613,555.5C 625.707,586.422 623.707,587.422 607,558.5C 604.132,551.796 602.965,544.796 603.5,537.5 Z"/></g>
<g><path style="opacity:1" fill="#f8fcfe" d="M 619.5,541.5 C 624.404,551.855 626.571,562.855 626,574.5C 619.84,565.027 617.173,554.694 618,543.5C 618.717,542.956 619.217,542.289 619.5,541.5 Z"/></g>
<g><path style="opacity:1" fill="#fbcd2a" d="M 484.5,550.5 C 489.833,550.5 495.167,550.5 500.5,550.5C 503.167,550.5 505.833,550.5 508.5,550.5C 510.167,550.5 511.833,550.5 513.5,550.5C 517.783,551.386 521.117,553.72 523.5,557.5C 524.36,561.434 524.693,565.434 524.5,569.5C 522.341,574.324 518.675,577.324 513.5,578.5C 503.833,578.5 494.167,578.5 484.5,578.5C 484.167,578.5 483.833,578.5 483.5,578.5C 473.77,575.386 469.936,568.719 472,558.5C 474.956,553.939 479.123,551.272 484.5,550.5 Z"/></g>
<g><path style="opacity:1" fill="#eec52f" d="M 377.5,581.5 C 374.689,585.078 371.022,587.411 366.5,588.5C 359.829,589.832 355.163,587.499 352.5,581.5C 352.5,580.5 352.5,579.5 352.5,578.5C 355.211,578.185 357.544,578.852 359.5,580.5C 362.146,582.78 365.146,583.113 368.5,581.5C 371.468,579.523 373.802,576.856 375.5,573.5C 379.123,562.968 375.457,558.135 364.5,559C 359.962,562.025 357.296,566.191 356.5,571.5C 354.833,571.5 353.167,571.5 351.5,571.5C 351.993,569.194 352.326,566.861 352.5,564.5C 357.595,553.781 365.595,550.614 376.5,555C 384.163,563.489 384.496,572.322 377.5,581.5 Z"/></g>
<g><path style="opacity:1" fill="#203c59" d="M 375.5,573.5 C 369.108,572.973 362.775,572.307 356.5,571.5C 357.296,566.191 359.962,562.025 364.5,559C 375.457,558.135 379.123,562.968 375.5,573.5 Z"/></g>
<g><path style="opacity:1" fill="#e6a722" d="M 515.5,559.5 C 518.525,560.033 519.858,561.867 519.5,565C 519.004,568.989 517.004,571.989 513.5,574C 503.833,574.667 494.167,574.667 484.5,574C 496.46,572.35 506.793,567.517 515.5,559.5 Z"/></g>
<g><path style="opacity:1" fill="#958a40" d="M 523.5,557.5 C 524.117,557.611 524.617,557.944 525,558.5C 525.81,562.358 525.643,566.024 524.5,569.5C 524.693,565.434 524.36,561.434 523.5,557.5 Z"/></g>
<g><path style="opacity:1" fill="#636a49" d="M 352.5,564.5 C 352.326,566.861 351.993,569.194 351.5,571.5C 350.355,569.047 350.688,566.713 352.5,564.5 Z"/></g>
<g><path style="opacity:0.627" fill="#8a9bac" d="M 265.5,569.5 C 267.405,573.216 268.739,577.216 269.5,581.5C 267.194,577.915 265.861,573.915 265.5,569.5 Z"/></g>
<g><path style="opacity:1" fill="#a6d3e9" d="M 351.5,571.5 C 353.167,571.5 354.833,571.5 356.5,571.5C 362.775,572.307 369.108,572.973 375.5,573.5C 373.802,576.856 371.468,579.523 368.5,581.5C 365.591,579.713 362.591,579.379 359.5,580.5C 357.544,578.852 355.211,578.185 352.5,578.5C 352.5,579.5 352.5,580.5 352.5,581.5C 350.977,578.957 348.81,576.957 346,575.5C 345.517,574.552 345.351,573.552 345.5,572.5C 347.735,572.795 349.735,572.461 351.5,571.5 Z"/></g>
<g><path style="opacity:1" fill="#617c93" d="M 483.5,578.5 C 483.833,578.5 484.167,578.5 484.5,578.5C 484.5,583.5 484.5,588.5 484.5,593.5C 483.209,593.737 482.209,593.404 481.5,592.5C 483.436,588.285 484.103,583.619 483.5,578.5 Z"/></g>
<g><path style="opacity:1" fill="#f2f6f7" d="M 484.5,578.5 C 494.167,578.5 503.833,578.5 513.5,578.5C 507.013,579.328 500.346,579.828 493.5,580C 495.86,581.18 498.193,582.347 500.5,583.5C 500.5,588.167 500.5,592.833 500.5,597.5C 495.146,596.162 489.813,594.828 484.5,593.5C 484.5,588.5 484.5,583.5 484.5,578.5 Z"/></g>
<g><path style="opacity:1" fill="#1f3e5b" d="M 368.5,581.5 C 365.146,583.113 362.146,582.78 359.5,580.5C 362.591,579.379 365.591,579.713 368.5,581.5 Z"/></g>
<g><path style="opacity:1" fill="#fbfdfe" d="M 429.5,601.5 C 432.883,604.289 434.55,607.955 434.5,612.5C 434.706,614.549 435.539,614.883 437,613.5C 437.667,608.5 437.667,603.5 437,598.5C 435.441,596.783 434.608,594.783 434.5,592.5C 441.855,591.096 449.189,591.263 456.5,593C 479.11,599.204 501.443,606.204 523.5,614C 554.673,622.395 584.673,619.395 613.5,605C 618.289,601.054 622.623,596.721 626.5,592C 628.5,591.333 630.5,591.333 632.5,592C 633.056,592.383 633.389,592.883 633.5,593.5C 618.81,622.029 595.476,638.529 563.5,643C 555.797,643.588 548.13,644.421 540.5,645.5C 524.819,645.653 509.152,645.319 493.5,644.5C 491.369,643.686 489.036,643.186 486.5,643C 492.149,641.919 497.816,640.919 503.5,640C 505.002,639.417 506.335,638.584 507.5,637.5C 501.808,625.981 492.808,618.148 480.5,614C 472.309,611.262 463.976,609.096 455.5,607.5C 452.686,601.627 448.352,598.294 442.5,597.5C 446.218,602.484 448.884,607.984 450.5,614C 463.042,616.403 475.042,620.403 486.5,626C 489.797,628.295 492.797,630.962 495.5,634C 490.762,635.938 485.762,636.771 480.5,636.5C 469.038,635.854 457.705,634.354 446.5,632C 439.506,629.006 433.672,624.506 429,618.5C 423.626,623.028 417.459,624.528 410.5,623C 406.044,621.459 401.711,619.626 397.5,617.5C 397.107,613.438 395.107,610.438 391.5,608.5C 391.379,611.002 391.212,613.668 391,616.5C 385.886,623.969 380.552,624.302 375,617.5C 373.811,613.291 374.644,609.624 377.5,606.5C 371.488,602.493 365.155,598.993 358.5,596C 356.735,595.36 355.068,595.527 353.5,596.5C 352.596,595.791 352.263,594.791 352.5,593.5C 357.844,593.666 363.177,593.499 368.5,593C 372.854,589.97 377.188,586.97 381.5,584C 393.579,581.964 404.912,583.964 415.5,590C 420.04,594.046 424.707,597.879 429.5,601.5 Z"/></g>
<g><path style="opacity:1" fill="#f5fafd" d="M 509.5,589.5 C 510.5,590.167 511.5,590.833 512.5,591.5C 512.5,594.5 512.5,597.5 512.5,600.5C 511.167,600.5 509.833,600.5 508.5,600.5C 508.185,596.629 508.518,592.962 509.5,589.5 Z"/></g>
<g><path style="opacity:1" fill="#0d99d6" d="M 633.5,593.5 C 634.833,593.5 636.167,593.5 637.5,593.5C 637.662,595.527 637.495,597.527 637,599.5C 627.96,624.388 611.794,643.222 588.5,656C 548.827,676.479 506.827,683.479 462.5,677C 437.395,672.632 413.728,664.299 391.5,652C 375.644,639.786 363.478,624.619 355,606.5C 353.801,603.274 353.301,599.941 353.5,596.5C 355.068,595.527 356.735,595.36 358.5,596C 365.155,598.993 371.488,602.493 377.5,606.5C 374.644,609.624 373.811,613.291 375,617.5C 380.552,624.302 385.886,623.969 391,616.5C 391.212,613.668 391.379,611.002 391.5,608.5C 395.107,610.438 397.107,613.438 397.5,617.5C 401.711,619.626 406.044,621.459 410.5,623C 417.459,624.528 423.626,623.028 429,618.5C 433.672,624.506 439.506,629.006 446.5,632C 457.705,634.354 469.038,635.854 480.5,636.5C 485.762,636.771 490.762,635.938 495.5,634C 492.797,630.962 489.797,628.295 486.5,626C 475.042,620.403 463.042,616.403 450.5,614C 448.884,607.984 446.218,602.484 442.5,597.5C 448.352,598.294 452.686,601.627 455.5,607.5C 463.976,609.096 472.309,611.262 480.5,614C 492.808,618.148 501.808,625.981 507.5,637.5C 506.335,638.584 505.002,639.417 503.5,640C 497.816,640.919 492.149,641.919 486.5,643C 489.036,643.186 491.369,643.686 493.5,644.5C 502.277,646.052 511.277,646.719 520.5,646.5C 527.342,646.5 534.009,646.166 540.5,645.5C 548.13,644.421 555.797,643.588 563.5,643C 595.476,638.529 618.81,622.029 633.5,593.5 Z"/></g>
<g><path style="opacity:1" fill="#2f4b6a" d="M 380.5,608.5 C 386.487,607.977 388.487,610.477 386.5,616C 378.839,618.168 376.839,615.668 380.5,608.5 Z"/></g>
<g><path style="opacity:1" fill="#7dc9e9" d="M 493.5,644.5 C 509.152,645.319 524.819,645.653 540.5,645.5C 534.009,646.166 527.342,646.5 520.5,646.5C 511.277,646.719 502.277,646.052 493.5,644.5 Z"/></g>
<g><path style="opacity:0.11" fill="#e3e8eb" d="M 262.5,564.5 C 263.313,566.261 264.313,567.928 265.5,569.5C 265.861,573.915 267.194,577.915 269.5,581.5C 272.32,588.723 275.153,596.057 278,603.5C 292.257,630.742 309.257,656.075 329,679.5C 342.367,694.033 356.2,708.033 370.5,721.5C 357.662,712.173 345.829,701.506 335,689.5C 328.388,680.222 321.055,671.555 313,663.5C 293.485,637.485 277.818,609.152 266,578.5C 264.518,573.892 263.351,569.225 262.5,564.5 Z"/></g>
<g><path style="opacity:1" fill="#5f89a7" d="M 459.5,688.5 C 468.962,689.592 478.295,690.592 487.5,691.5C 477.856,692.057 468.523,691.057 459.5,688.5 Z"/></g>
<g><path style="opacity:1" fill="#f5f6f8" d="M 499.5,704.5 C 499.5,706.5 499.5,708.5 499.5,710.5C 494.305,710.179 489.305,710.513 484.5,711.5C 484.167,711.5 483.833,711.5 483.5,711.5C 483.176,707.445 483.509,703.445 484.5,699.5C 489.313,701.771 494.313,703.438 499.5,704.5 Z"/></g>
<g><path style="opacity:1" fill="#aedbf3" d="M 499.5,704.5 C 502.33,704.963 504.997,705.629 507.5,706.5C 506.566,707.568 506.232,708.901 506.5,710.5C 504.167,710.5 501.833,710.5 499.5,710.5C 499.5,708.5 499.5,706.5 499.5,704.5 Z"/></g>
<g><path style="opacity:1" fill="#f2f0e1" d="M 507.5,706.5 C 509.833,706.5 512.167,706.5 514.5,706.5C 514.5,708.167 514.5,709.833 514.5,711.5C 504.5,711.5 494.5,711.5 484.5,711.5C 489.305,710.513 494.305,710.179 499.5,710.5C 501.833,710.5 504.167,710.5 506.5,710.5C 506.232,708.901 506.566,707.568 507.5,706.5 Z"/></g>
<g><path style="opacity:1" fill="#fbcc29" d="M 483.5,711.5 C 483.833,711.5 484.167,711.5 484.5,711.5C 494.5,711.5 504.5,711.5 514.5,711.5C 526.001,715.854 528.668,723.521 522.5,734.5C 525.317,737.818 528.317,740.985 531.5,744C 511.736,750.595 491.736,751.262 471.5,746C 469.956,745.71 468.623,745.044 467.5,744C 470,741.5 472.5,739 475,736.5C 475.596,733.314 475.096,730.314 473.5,727.5C 473.704,724.482 474.037,721.482 474.5,718.5C 476.637,715.027 479.637,712.694 483.5,711.5 Z"/></g>
<g><path style="opacity:1" fill="#e4a422" d="M 515.5,716.5 C 516.787,717.871 517.453,719.705 517.5,722C 518.211,729.29 514.877,732.623 507.5,732C 501.167,732.667 494.833,732.667 488.5,732C 495.803,728.683 503.136,725.35 510.5,722C 512.373,720.296 514.04,718.463 515.5,716.5 Z"/></g>
<g><path style="opacity:1" fill="#6f7247" d="M 474.5,718.5 C 474.037,721.482 473.704,724.482 473.5,727.5C 472.848,726.551 472.514,725.385 472.5,724C 472.393,721.779 473.06,719.946 474.5,718.5 Z"/></g>
<g><path style="opacity:0.024" fill="#e0e4e9" d="M 727.5,590.5 C 724.236,599.699 720.403,608.699 716,617.5C 710.333,627.167 704.667,636.833 699,646.5C 683.292,667.214 666.459,687.048 648.5,706C 638.46,714.677 628.46,723.343 618.5,732C 593.873,751.157 566.873,766.49 537.5,778C 518.968,785.481 499.968,787.147 480.5,783C 463.165,778.444 446.498,772.11 430.5,764C 412.649,754.246 395.649,743.246 379.5,731C 376.296,727.964 373.296,724.797 370.5,721.5C 381.27,729.091 391.937,736.924 402.5,745C 425.168,760.838 449.834,772.505 476.5,780C 481.857,780.871 487.191,781.871 492.5,783C 503.701,783.523 514.701,782.19 525.5,779C 537.011,775.386 548.345,771.386 559.5,767C 613.082,738.759 657.582,699.926 693,650.5C 706.444,632.279 717.278,612.612 725.5,591.5C 726.167,591.167 726.833,590.833 727.5,590.5 Z"/></g>
<g><path style="opacity:1" fill="#16395a" d="M 317.5,789.5 C 313.994,780.265 313.661,770.932 316.5,761.5C 316.167,760.167 315.833,758.833 315.5,757.5C 313.016,759.483 310.683,761.65 308.5,764C 297.959,768.622 287.626,773.622 277.5,779C 273.017,782.136 270.85,786.303 271,791.5C 272.451,793.464 274.284,794.797 276.5,795.5C 277.263,796.268 278.263,796.768 279.5,797C 412.5,797.5 545.5,797.667 678.5,797.5C 691.837,797.667 705.171,797.5 718.5,797C 726.355,795.864 729.189,791.698 727,784.5C 724.833,782.333 722.667,780.167 720.5,778C 711.694,773.951 702.694,770.285 693.5,767C 689.686,764.353 686.353,761.187 683.5,757.5C 682.52,760.086 682.187,762.753 682.5,765.5C 683.254,770.463 683.587,775.463 683.5,780.5C 683.333,784.673 682,788.34 679.5,791.5C 679.55,786.448 679.05,781.448 678,776.5C 676,768.5 674,760.5 672,752.5C 671.172,748.129 671.339,743.795 672.5,739.5C 677.726,744.896 683.392,749.729 689.5,754C 703.363,761.06 717.363,767.726 731.5,774C 735.194,776.687 737.694,780.187 739,784.5C 739.667,809.5 739.667,834.5 739,859.5C 736.545,864.149 732.712,866.983 727.5,868C 579.196,869.491 430.863,869.991 282.5,869.5C 272.524,870.26 264.69,866.594 259,858.5C 258.048,833.125 258.381,807.792 260,782.5C 261.378,777.792 264.212,774.292 268.5,772C 284.801,765.683 300.468,758.016 315.5,749C 319,745.5 322.5,742 326,738.5C 327.534,742.711 327.867,747.044 327,751.5C 322.594,764.15 319.427,776.816 317.5,789.5 Z"/></g>
<g><path style="opacity:0.203" fill="#dde2e7" d="M 320.5,794.5 C 318.953,793.232 317.953,791.565 317.5,789.5C 319.427,776.816 322.594,764.15 327,751.5C 327.867,747.044 327.534,742.711 326,738.5C 322.5,742 319,745.5 315.5,749C 300.468,758.016 284.801,765.683 268.5,772C 264.212,774.292 261.378,777.792 260,782.5C 258.381,807.792 258.048,833.125 259,858.5C 264.69,866.594 272.524,870.26 282.5,869.5C 282.833,870.167 283.167,870.833 283.5,871.5C 276.053,872.055 269.053,870.555 262.5,867C 259.865,865.039 258.031,862.539 257,859.5C 256.056,833.464 256.389,807.464 258,781.5C 259.668,777.658 262.168,774.491 265.5,772C 281.075,764.045 296.742,756.379 312.5,749C 317.649,744.685 322.649,740.185 327.5,735.5C 329.351,740.696 329.851,746.03 329,751.5C 327.205,759.218 325.205,766.885 323,774.5C 322.117,781.308 321.283,787.975 320.5,794.5 Z"/></g>
<g><path style="opacity:1" fill="#aedbf4" d="M 317.5,789.5 C 317.953,791.565 318.953,793.232 320.5,794.5C 320.5,794.833 320.5,795.167 320.5,795.5C 305.98,796.774 291.313,796.774 276.5,795.5C 274.284,794.797 272.451,793.464 271,791.5C 270.85,786.303 273.017,782.136 277.5,779C 287.626,773.622 297.959,768.622 308.5,764C 310.683,761.65 313.016,759.483 315.5,757.5C 315.833,758.833 316.167,760.167 316.5,761.5C 313.661,770.932 313.994,780.265 317.5,789.5 Z"/></g>
<g><path style="opacity:1" fill="#afdcf5" d="M 678.5,797.5 C 678.167,796.5 677.5,795.833 676.5,795.5C 677.388,792.946 677.721,790.279 677.5,787.5C 678.167,788.833 678.833,790.167 679.5,791.5C 682,788.34 683.333,784.673 683.5,780.5C 684.162,778.696 684.495,776.696 684.5,774.5C 684.657,771.186 683.991,768.186 682.5,765.5C 682.187,762.753 682.52,760.086 683.5,757.5C 686.353,761.187 689.686,764.353 693.5,767C 702.694,770.285 711.694,773.951 720.5,778C 722.667,780.167 724.833,782.333 727,784.5C 729.189,791.698 726.355,795.864 718.5,797C 705.171,797.5 691.837,797.667 678.5,797.5 Z"/></g>
<g><path style="opacity:0.573" fill="#dfe5ea" d="M 276.5,795.5 C 291.313,796.774 305.98,796.774 320.5,795.5C 439.167,795.5 557.833,795.5 676.5,795.5C 677.5,795.833 678.167,796.5 678.5,797.5C 545.5,797.667 412.5,797.5 279.5,797C 278.263,796.768 277.263,796.268 276.5,795.5 Z"/></g>
<g><path style="opacity:0.404" fill="#c2cbd2" d="M 283.5,871.5 C 283.167,870.833 282.833,870.167 282.5,869.5C 430.863,869.991 579.196,869.491 727.5,868C 732.712,866.983 736.545,864.149 739,859.5C 739.667,834.5 739.667,809.5 739,784.5C 737.694,780.187 735.194,776.687 731.5,774C 717.363,767.726 703.363,761.06 689.5,754C 683.392,749.729 677.726,744.896 672.5,739.5C 671.339,743.795 671.172,748.129 672,752.5C 674,760.5 676,768.5 678,776.5C 679.05,781.448 679.55,786.448 679.5,791.5C 678.833,790.167 678.167,788.833 677.5,787.5C 675.641,776.729 673.141,766.063 670,755.5C 669.333,749.833 669.333,744.167 670,738.5C 670.249,737.376 670.749,736.376 671.5,735.5C 675.658,740.491 680.325,744.991 685.5,749C 700.784,757.429 716.451,765.096 732.5,772C 739.522,777.696 742.688,785.196 742,794.5C 742.667,815.833 742.667,837.167 742,858.5C 741.394,861.548 739.894,864.048 737.5,866C 733.928,868.637 729.928,870.303 725.5,871C 578.167,871.5 430.834,871.667 283.5,871.5 Z"/></g>
<g><path style="opacity:1" fill="#6e869d" d="M 682.5,765.5 C 683.991,768.186 684.657,771.186 684.5,774.5C 684.495,776.696 684.162,778.696 683.5,780.5C 683.587,775.463 683.254,770.463 682.5,765.5 Z"/></g>
<g><path style="opacity:1" fill="#798da1" d="M 346.5,817.5 C 350.311,816.355 354.311,816.188 358.5,817C 359.337,818.011 359.67,819.178 359.5,820.5C 358.733,819.828 358.066,818.995 357.5,818C 353.848,817.501 350.182,817.335 346.5,817.5 Z"/></g>
<g><path style="opacity:1" fill="#8295a7" d="M 673.5,849.5 C 673.5,841.167 673.5,832.833 673.5,824.5C 675.833,824.5 678.167,824.5 680.5,824.5C 680.5,822.167 680.5,819.833 680.5,817.5C 673.167,817.5 665.833,817.5 658.5,817.5C 658.5,819.833 658.5,822.167 658.5,824.5C 660.833,824.5 663.167,824.5 665.5,824.5C 665.5,832.833 665.5,841.167 665.5,849.5C 664.508,841.684 664.174,833.684 664.5,825.5C 662.167,825.5 659.833,825.5 657.5,825.5C 657.5,822.5 657.5,819.5 657.5,816.5C 665.5,816.5 673.5,816.5 681.5,816.5C 681.5,819.5 681.5,822.5 681.5,825.5C 679.167,825.5 676.833,825.5 674.5,825.5C 674.826,833.684 674.492,841.684 673.5,849.5 Z"/></g>
<g><path style="opacity:1" fill="#b5c0cb" d="M 398.5,827.5 C 396.928,824.785 395.928,821.785 395.5,818.5C 392.287,818.19 389.287,818.523 386.5,819.5C 385.596,818.791 385.263,817.791 385.5,816.5C 388.85,816.335 392.183,816.502 395.5,817C 397.208,820.293 398.208,823.793 398.5,827.5 Z"/></g>
<g><path style="opacity:1" fill="#a9b6c2" d="M 417.5,819.5 C 414.77,818.183 411.937,818.183 409,819.5C 407.05,826.021 404.717,832.354 402,838.5C 400.726,834.846 399.56,831.18 398.5,827.5C 400.311,829.385 401.478,831.719 402,834.5C 404.452,828.984 406.618,823.317 408.5,817.5C 411.768,816.513 415.102,816.18 418.5,816.5C 418.737,817.791 418.404,818.791 417.5,819.5 Z"/></g>
<g><path style="opacity:1" fill="#f4f5f7" d="M 468.5,817.5 C 475.127,819.417 477.627,823.75 476,830.5C 474.695,833.638 472.529,835.971 469.5,837.5C 472.559,841.228 475.226,845.228 477.5,849.5C 473.833,850.833 470.167,850.833 466.5,849.5C 464.533,845.703 462.366,842.036 460,838.5C 459.501,842.486 459.334,846.486 459.5,850.5C 456.833,850.5 454.167,850.5 451.5,850.5C 451.5,839.5 451.5,828.5 451.5,817.5C 457.167,817.5 462.833,817.5 468.5,817.5 Z"/></g>
<g><path style="opacity:1" fill="#f0f2f5" d="M 567.5,816.5 C 571.846,816.334 576.179,816.501 580.5,817C 581.91,817.368 582.91,818.201 583.5,819.5C 582.752,821.332 581.752,822.999 580.5,824.5C 578.043,822.775 575.377,822.275 572.5,823C 571.294,825.709 572.294,827.375 575.5,828C 585.794,830.243 588.294,836.076 583,845.5C 581.786,847.049 580.286,848.215 578.5,849C 574.833,849.667 571.167,849.667 567.5,849C 560.547,846.964 559.88,843.798 565.5,839.5C 567.309,841.488 569.476,842.822 572,843.5C 574.554,843.42 576.054,842.086 576.5,839.5C 574.205,836.779 571.205,835.279 567.5,835C 560.87,828.835 560.87,822.668 567.5,816.5 Z"/></g>
<g><path style="opacity:1" fill="#edf0f2" d="M 282.5,816.5 C 285.833,816.5 289.167,816.5 292.5,816.5C 294.164,823.325 296.331,829.992 299,836.5C 301.202,830.228 303.202,823.895 305,817.5C 308.394,816.544 311.894,816.211 315.5,816.5C 311.592,827.486 307.259,838.319 302.5,849C 299.901,849.769 297.401,849.602 295,848.5C 290.333,837.995 286.167,827.328 282.5,816.5 Z"/></g>
<g><path style="opacity:1" fill="#677e94" d="M 329.5,817.5 C 326.5,817.5 323.5,817.5 320.5,817.5C 320.5,828.167 320.5,838.833 320.5,849.5C 319.505,838.679 319.172,827.679 319.5,816.5C 323.042,816.187 326.375,816.521 329.5,817.5 Z"/></g>
<g><path style="opacity:1" fill="#cdd5dc" d="M 329.5,817.5 C 329.5,828.167 329.5,838.833 329.5,849.5C 326.5,849.5 323.5,849.5 320.5,849.5C 320.5,838.833 320.5,828.167 320.5,817.5C 323.5,817.5 326.5,817.5 329.5,817.5 Z"/></g>
<g><path style="opacity:1" fill="#fefffe" d="M 321.5,818.5 C 323.833,818.5 326.167,818.5 328.5,818.5C 328.5,828.5 328.5,838.5 328.5,848.5C 326.167,848.5 323.833,848.5 321.5,848.5C 321.5,838.5 321.5,828.5 321.5,818.5 Z"/></g>
<g><path style="opacity:1" fill="#f5f7f8" d="M 346.5,817.5 C 350.182,817.335 353.848,817.501 357.5,818C 358.066,818.995 358.733,819.828 359.5,820.5C 362.702,830.107 365.702,839.773 368.5,849.5C 365.813,849.664 363.146,849.497 360.5,849C 359.594,847.301 359.261,845.467 359.5,843.5C 354.833,843.5 350.167,843.5 345.5,843.5C 345.167,845.5 344.833,847.5 344.5,849.5C 341.5,849.5 338.5,849.5 335.5,849.5C 338.858,838.736 342.525,828.07 346.5,817.5 Z"/></g>
<g><path style="opacity:1" fill="#f8f9fa" d="M 398.5,827.5 C 399.56,831.18 400.726,834.846 402,838.5C 404.717,832.354 407.05,826.021 409,819.5C 411.937,818.183 414.77,818.183 417.5,819.5C 413.346,829.145 409.179,838.812 405,848.5C 402.333,849.833 399.667,849.833 397,848.5C 393.648,838.748 390.148,829.081 386.5,819.5C 389.287,818.523 392.287,818.19 395.5,818.5C 395.928,821.785 396.928,824.785 398.5,827.5 Z"/></g>
<g><path style="opacity:1" fill="#f5f6f8" d="M 423.5,817.5 C 430.167,817.5 436.833,817.5 443.5,817.5C 443.5,819.5 443.5,821.5 443.5,823.5C 439.833,823.5 436.167,823.5 432.5,823.5C 432.5,825.833 432.5,828.167 432.5,830.5C 435.833,830.5 439.167,830.5 442.5,830.5C 443.468,832.607 443.802,834.941 443.5,837.5C 439.833,837.5 436.167,837.5 432.5,837.5C 432.5,839.167 432.5,840.833 432.5,842.5C 436.167,842.5 439.833,842.5 443.5,842.5C 443.5,844.833 443.5,847.167 443.5,849.5C 436.833,849.5 430.167,849.5 423.5,849.5C 423.5,838.833 423.5,828.167 423.5,817.5 Z"/></g>
<g><path style="opacity:1" fill="#536d86" d="M 468.5,817.5 C 462.833,817.5 457.167,817.5 451.5,817.5C 451.5,828.5 451.5,839.5 451.5,850.5C 450.505,839.346 450.172,828.012 450.5,816.5C 456.69,816.177 462.69,816.51 468.5,817.5 Z"/></g>
<g><path style="opacity:1" fill="#aebac6" d="M 491.5,817.5 C 488.833,817.5 486.167,817.5 483.5,817.5C 483.5,827.833 483.5,838.167 483.5,848.5C 486.167,848.5 488.833,848.5 491.5,848.5C 488.713,849.477 485.713,849.81 482.5,849.5C 482.5,838.5 482.5,827.5 482.5,816.5C 485.713,816.19 488.713,816.523 491.5,817.5 Z"/></g>
<g><path style="opacity:1" fill="#fefefe" d="M 491.5,817.5 C 491.5,827.833 491.5,838.167 491.5,848.5C 488.833,848.5 486.167,848.5 483.5,848.5C 483.5,838.167 483.5,827.833 483.5,817.5C 486.167,817.5 488.833,817.5 491.5,817.5 Z"/></g>
<g><path style="opacity:1" fill="#fdfdfd" d="M 498.5,817.5 C 506.167,817.5 513.833,817.5 521.5,817.5C 521.5,819.833 521.5,822.167 521.5,824.5C 519.265,824.205 517.265,824.539 515.5,825.5C 514.508,832.982 514.175,840.648 514.5,848.5C 511.833,848.5 509.167,848.5 506.5,848.5C 506.5,840.5 506.5,832.5 506.5,824.5C 503.833,824.5 501.167,824.5 498.5,824.5C 498.5,822.167 498.5,819.833 498.5,817.5 Z"/></g>
<g><path style="opacity:1" fill="#8194a6" d="M 498.5,817.5 C 506.316,816.508 514.316,816.174 522.5,816.5C 522.5,819.5 522.5,822.5 522.5,825.5C 520.167,825.5 517.833,825.5 515.5,825.5C 517.265,824.539 519.265,824.205 521.5,824.5C 521.5,822.167 521.5,819.833 521.5,817.5C 513.833,817.5 506.167,817.5 498.5,817.5 Z"/></g>
<g><path style="opacity:1" fill="#eceff2" d="M 535.5,816.5 C 539.555,816.176 543.555,816.509 547.5,817.5C 551.573,828.052 555.239,838.719 558.5,849.5C 555.5,849.5 552.5,849.5 549.5,849.5C 549.167,847.5 548.833,845.5 548.5,843.5C 544.116,843.174 539.783,843.508 535.5,844.5C 534.691,846.071 534.357,847.738 534.5,849.5C 531.5,849.5 528.5,849.5 525.5,849.5C 528.036,838.229 531.369,827.229 535.5,816.5 Z"/></g>
<g><path style="opacity:1" fill="#eff1f3" d="M 603.5,816.5 C 606.833,816.5 610.167,816.5 613.5,816.5C 615.351,823.556 617.518,830.556 620,837.5C 621.866,830.735 624.033,824.068 626.5,817.5C 629.768,816.513 633.102,816.18 636.5,816.5C 632.294,827.25 627.794,837.917 623,848.5C 620.281,849.444 617.448,849.777 614.5,849.5C 610.531,838.571 606.864,827.571 603.5,816.5 Z"/></g>
<g><path style="opacity:1" fill="#48637e" d="M 651.5,849.5 C 651.828,838.654 651.494,827.987 650.5,817.5C 647.833,817.5 645.167,817.5 642.5,817.5C 642.5,827.833 642.5,838.167 642.5,848.5C 642.5,848.833 642.5,849.167 642.5,849.5C 641.505,838.679 641.172,827.679 641.5,816.5C 645.167,816.5 648.833,816.5 652.5,816.5C 652.828,827.679 652.495,838.679 651.5,849.5 Z"/></g>
<g><path style="opacity:1" fill="#b3bec9" d="M 650.5,817.5 C 651.494,827.987 651.828,838.654 651.5,849.5C 648.5,849.5 645.5,849.5 642.5,849.5C 642.5,849.167 642.5,848.833 642.5,848.5C 645.167,848.5 647.833,848.5 650.5,848.5C 650.5,838.167 650.5,827.833 650.5,817.5 Z"/></g>
<g><path style="opacity:1" fill="#fafbfc" d="M 650.5,817.5 C 650.5,827.833 650.5,838.167 650.5,848.5C 647.833,848.5 645.167,848.5 642.5,848.5C 642.5,838.167 642.5,827.833 642.5,817.5C 645.167,817.5 647.833,817.5 650.5,817.5 Z"/></g>
<g><path style="opacity:1" fill="#fafbfc" d="M 673.5,849.5 C 670.833,849.5 668.167,849.5 665.5,849.5C 665.5,841.167 665.5,832.833 665.5,824.5C 663.167,824.5 660.833,824.5 658.5,824.5C 658.5,822.167 658.5,819.833 658.5,817.5C 665.833,817.5 673.167,817.5 680.5,817.5C 680.5,819.833 680.5,822.167 680.5,824.5C 678.167,824.5 675.833,824.5 673.5,824.5C 673.5,832.833 673.5,841.167 673.5,849.5 Z"/></g>
<g><path style="opacity:1" fill="#f0f2f4" d="M 686.5,841.5 C 688.61,837.498 689.943,833.165 690.5,828.5C 691.755,824.649 693.089,820.815 694.5,817C 698.486,816.501 702.486,816.334 706.5,816.5C 709.761,827.281 713.427,837.948 717.5,848.5C 714.232,849.487 710.898,849.82 707.5,849.5C 708.272,844.106 705.938,842.106 700.5,843.5C 695.062,842.106 692.728,844.106 693.5,849.5C 690.5,849.5 687.5,849.5 684.5,849.5C 684.294,846.505 684.96,843.838 686.5,841.5 Z"/></g>
<g><path style="opacity:1" fill="#8e9eaf" d="M 348.5,833.5 C 348.899,830.304 349.899,827.304 351.5,824.5C 354.036,828.443 355.369,832.776 355.5,837.5C 352.833,837.5 350.167,837.5 347.5,837.5C 347.232,835.901 347.566,834.568 348.5,833.5 Z"/></g>
<g><path style="opacity:1" fill="#234263" d="M 460.5,824.5 C 467.004,824.138 468.671,826.638 465.5,832C 463.866,832.494 462.199,832.66 460.5,832.5C 460.5,829.833 460.5,827.167 460.5,824.5 Z"/></g>
<g><path style="opacity:1" fill="#98a7b6" d="M 498.5,824.5 C 501.167,824.5 503.833,824.5 506.5,824.5C 506.5,832.5 506.5,840.5 506.5,848.5C 509.167,848.5 511.833,848.5 514.5,848.5C 514.175,840.648 514.508,832.982 515.5,825.5C 515.5,833.5 515.5,841.5 515.5,849.5C 512.167,849.5 508.833,849.5 505.5,849.5C 505.5,841.5 505.5,833.5 505.5,825.5C 502.941,825.802 500.607,825.468 498.5,824.5 Z"/></g>
<g><path style="opacity:1" fill="#214161" d="M 540.5,825.5 C 542.601,828.797 543.935,832.463 544.5,836.5C 542.167,836.5 539.833,836.5 537.5,836.5C 537.892,832.658 538.892,828.991 540.5,825.5 Z"/></g>
<g><path style="opacity:1" fill="#193c5d" d="M 348.5,833.5 C 349.751,831.618 350.918,829.618 352,827.5C 353.145,830.432 353.978,833.432 354.5,836.5C 352.5,836.5 350.5,836.5 348.5,836.5C 348.5,835.5 348.5,834.5 348.5,833.5 Z"/></g>
<g><path style="opacity:1" fill="#2a4867" d="M 699.5,823.5 C 701.52,827.192 703.187,831.192 704.5,835.5C 702.257,836.474 699.924,836.808 697.5,836.5C 698.167,832.167 698.833,827.833 699.5,823.5 Z"/></g>
<g><path style="opacity:1" fill="#8194a6" d="M 423.5,817.5 C 430.313,816.509 437.313,816.175 444.5,816.5C 444.5,819.167 444.5,821.833 444.5,824.5C 440.833,824.5 437.167,824.5 433.5,824.5C 433.5,826.167 433.5,827.833 433.5,829.5C 436.713,829.19 439.713,829.523 442.5,830.5C 439.167,830.5 435.833,830.5 432.5,830.5C 432.5,828.167 432.5,825.833 432.5,823.5C 436.167,823.5 439.833,823.5 443.5,823.5C 443.5,821.5 443.5,819.5 443.5,817.5C 436.833,817.5 430.167,817.5 423.5,817.5 Z"/></g>
<g><path style="opacity:1" fill="#8496a8" d="M 690.5,828.5 C 689.943,833.165 688.61,837.498 686.5,841.5C 687.057,836.835 688.39,832.502 690.5,828.5 Z"/></g>
</svg>
